<?xml version="1.0" encoding="UTF-8"?>
<svg version="1.1" viewBox="0 0 1600 1064" width="1280" height="1280" xmlns="http://www.w3.org/2000/svg">
<path transform="translate(928 92.9)" d="m0 0c9.64 5.15 17.9 11.6 24.8 20.1l2 2c5.63 6.41 9.11 13.8 12.1 21.7 0.815 2.22 0.815 2.22 1.88 3.99 4.55 10.2 3.4 24.3 3.57 35.3 0.0375 1.85 0.0754 3.7 0.114 5.55 0.262 13.5 0.375 26.9 0.477 40.4 0.0227 2.93 0.0474 5.86 0.0727 8.79 0.00843 0.975 0.0169 1.95 0.0255 2.95 0.0172 1.98 0.0345 3.96 0.052 5.94 0.0508 5.92 0.0872 11.8 0.114 17.8 0.0196 3.76 0.0513 7.53 0.0859 11.3 0.0136 1.77 0.0222 3.53 0.0253 5.3 0.0368 18.2 2.97 30.3 15.5 44 2.79 2.76 5.77 4.81 9.02 7 1.35 1.31 2.69 2.65 4 4 3.88 3.25 3.88 3.25 7.81 6.44 1.77 2.33 1.87 4.71 2.19 7.56-0.928 0.598-1.86 1.2-2.81 1.81-3.01 1.91-3.01 1.91-4.57 3.59-2.06 2.03-4.31 3.62-6.68 5.28-0.878 0.623-1.76 1.25-2.66 1.89-2.28 1.43-2.28 1.43-4.28 1.43-0.34 0.835-0.34 0.835-0.688 1.69-2.27 4-4.93 6.85-9.31 8.31-0.72 1.98-1.38 3.99-2 6-0.743 1.18-0.743 1.18-1.5 2.38-3.94 6.9-3.8 14.4-3.8 22.1-0.0127 1.69-0.0127 1.69-0.0256 3.41-0.0257 3.71-0.0379 7.42-0.0504 11.1-0.0162 2.6-0.0334 5.2-0.0515 7.8-0.0416 6.16-0.074 12.3-0.102 18.5-0.0539 11.6-0.123 23.2-0.198 34.8-0.0225 3.78-0.039 7.56-0.0547 11.3-0.0564 11.1-0.192 22.2-0.632 33.2-0.0504 1.37-0.0504 1.37-0.102 2.77-0.99 22-9.74 40.5-25.7 55.7-22.5 19.1-51.4 21-79.6 20.9-2.9-0.00543-5.81 1.23e-5 -8.71 0.00635-1.85-6.6e-4 -3.7-0.00194-5.54-0.00391-0.868 0.00202-1.74 0.00405-2.63 0.00613-6.07-0.0239-6.07-0.0239-8.3-1.14 0.624-5.63 2.61-10.4 4.75-15.6 0.363-0.891 0.725-1.78 1.1-2.7 1.04-2.56 2.1-5.12 3.15-7.68 0.708-1.74 0.708-1.74 1.43-3.52 3.25-7.94 6.73-15.8 10.6-23.5 0.552 0.0105 1.1 0.0209 1.67 0.0317 26.1 1.13 26.1 1.13 49-9.52 4.73-5.61 5.4-13.1 5.42-20.1 0.00545-1.09 0.0109-2.19 0.0165-3.31 0.00104-1.18 0.00208-2.37 0.00316-3.59 0.0078-1.93 0.0156-3.87 0.0236-5.8 0.00769-2.07 0.0131-4.14 0.018-6.21 0.0107-4.33 0.031-8.66 0.0531-13 0.0617-12.3 0.116-24.6 0.149-36.9 0.0184-6.81 0.0474-13.6 0.088-20.4 0.021-3.59 0.0365-7.19 0.0388-10.8 0.00257-4.02 0.0282-8.04 0.0553-12.1-0.00451-1.76-0.00451-1.76-0.00911-3.55 0.206-20.6 8.91-39.6 22.5-54.9 1.46-3 0.867-4.67-0.102-7.84-1.72-2.92-3.71-5.61-5.75-8.31-11.3-15.2-11.3-15.2-12.2-24.7-0.66-0.33-1.32-0.66-2-1 0.33-0.66 0.66-1.32 1-2h-2c-0.949-3.21-1.13-6.1-1.14-9.45-0.0069-1.11-0.0138-2.21-0.0209-3.35-0.00261-1.21-0.00523-2.42-0.00792-3.66-0.0103-1.96-0.0205-3.92-0.0309-5.88-0.0102-2.1-0.0181-4.21-0.0253-6.31-0.0155-4.39-0.0394-8.78-0.0649-13.2-0.0711-12.5-0.131-25-0.182-37.5-0.0283-6.9-0.0637-13.8-0.107-20.7-0.0267-4.36-0.0447-8.72-0.056-13.1-0.0113-3.36-0.0354-6.72-0.0575-10.1-5.89e-4 -1.2-0.00118-2.41-0.00179-3.64-0.0679-7.79-1.08-13.8-4.24-21-0.318-0.737-0.637-1.47-0.965-2.23-2.49-4.58-5.3-5.63-10.2-7.14-5.79-1.79-5.79-1.79-6.88-2.88-6.64-1.06-13.3-1.31-20-1.56-1.06-0.0432-2.12-0.0864-3.21-0.131-2.59-0.105-5.19-0.207-7.79-0.307 0.697-4.2 1.38-5.82 4.75-8.5 2.31-1.91 4.5-3.75 6.62-5.88 5.91-5.91 12.1-11.4 18.9-16.3 2.47-1.89 4.57-4.11 6.74-6.34 8.03-6.8 14.8-11.4 25.2-7.1zm-9.2 66.1 1 3zm2 134 1 2z" fill="#FBFCFE"/>
<path transform="translate(628,94)" d="m0 0c3.02 1.73 5.82 3.69 8.62 5.75 0.712 0.5 1.42 1 2.16 1.52 4.26 3.06 8.01 6.33 11.6 10.1 1.66 1.69 3.41 3.22 5.22 4.74 3.91 3.38 7.62 6.94 11.3 10.6 0.58 0.559 1.16 1.12 1.76 1.69 0.814 0.807 0.814 0.807 1.64 1.63 0.488 0.479 0.977 0.958 1.48 1.45 1.38 1.8 1.77 3.32 2.18 5.54-0.902 0.0449-1.8 0.0898-2.73 0.136-3.38 0.174-6.75 0.36-10.1 0.554-1.46 0.0812-2.91 0.158-4.37 0.229-2.1 0.104-4.21 0.226-6.31 0.35-1.26 0.0681-2.52 0.136-3.82 0.206-4.11 0.592-6.9 1.74-10.6 3.52-1.55 0.681-1.55 0.681-3.12 1.38-3.24 1.83-5.39 3.87-7.88 6.62-0.557 0.577-1.11 1.16-1.69 1.75-4.15 7.11-3.61 16-3.62 23.9-0.0127 1.86-0.0127 1.86-0.0256 3.75-0.0169 2.68-0.0303 5.35-0.0375 8.03-0.0116 4.24-0.0371 8.47-0.0643 12.7-0.0415 6.7-0.074 13.4-0.102 20.1-0.0511 12-0.113 24-0.185 36-0.0248 4.21-0.0443 8.41-0.0594 12.6-0.0127 3.24-0.0313 6.47-0.0488 9.71-0.00261 1.16-0.00523 2.32-0.00792 3.51-0.0785 12.2-2.6 21.7-7.67 32.8-0.445 0.982-0.445 0.982-0.899 1.98-1.53 3.27-2.96 5.71-5.6 8.14-1.63 2.13-3.2 4.25-4.75 6.44-0.424 0.573-0.848 1.15-1.29 1.74-2.31 3.19-2.31 3.19-2.93 6.97 1.18 2.26 2.58 4.08 4.22 6.04 3 3.74 5.41 7.48 7.63 11.7 1.2 2.32 1.2 2.32 3.18 5.29 3.15 5.44 4.34 11.8 5.94 17.8 0.343 0.963 0.687 1.93 1.04 2.92 1.56 5.51 1.25 11.2 1.25 16.9 0.0105 1.96 0.021 3.92 0.0315 5.88 0.00934 2.1 0.0138 4.19 0.0169 6.29 0.00674 4.38 0.0285 8.76 0.0525 13.1 0.053 10.1 0.0865 20.2 0.12 30.3 0.0307 9.25 0.0656 18.5 0.116 27.7 0.0233 4.35 0.0371 8.7 0.0435 13 0.00452 2.06 0.0135 4.11 0.0246 6.17 0.0134 2.5 0.0198 5 0.0177 7.5 0.0643 8.63 0.549 15 6.59 21.5 10.1 9.72 21.5 10.1 34.8 10.3 1.55 0.0332 3.1 0.0677 4.65 0.104 3.76 0.0842 7.53 0.151 11.3 0.209 0.177 0.558 0.353 1.12 0.535 1.69 1.69 5.23 3.64 10.2 5.9 15.2 0.621 1.4 1.24 2.79 1.86 4.19 0.295 0.665 0.589 1.33 0.893 2.02 1.71 3.91 3.26 7.88 4.81 11.9 0.706 1.79 1.41 3.58 2.12 5.38 0.312 0.791 0.624 1.58 0.945 2.4 0.871 2.24 0.871 2.24 2.11 4.2 1.08 2.66 0.457 4.28-0.18 7.02-79.6 0.602-79.6 0.602-107-25.4-5.99-6.21-10.8-12.7-14.3-20.6-0.547-1.01-0.547-1.01-1.11-2.04-0.895-1.96-0.895-1.96-0.895-4.96-0.66-0.33-1.32-0.66-2-1-2.24-3.43-2.54-6.99-3-11h-1c-0.907-16.5-1.2-33-1.3-49.5-0.0223-3.44-0.0495-6.89-0.0761-10.3-0.0493-6.48-0.0945-13-0.138-19.5-0.0499-7.4-0.105-14.8-0.16-22.2-0.113-15.2-0.22-30.4-0.323-45.5h-1c-0.208-0.822-0.415-1.64-0.629-2.49-4.06-14.7-11.4-21.9-23.4-30.5-1.48-1.1-2.96-2.2-4.44-3.31-0.607-0.452-1.21-0.905-1.84-1.37-2.65-2.02-5.18-4.16-7.72-6.32 1.58-4.35 4.98-6.78 8.44-9.62 1.27-1.07 2.54-2.14 3.81-3.21 0.633-0.532 1.27-1.06 1.92-1.61 13.2-11.1 22.6-21 24.8-38.6 0.272-4.32 0.301-8.62 0.303-12.9 0.0127-1.87 0.0127-1.87 0.0256-3.77 0.0168-2.69 0.0303-5.37 0.0375-8.06 0.0116-4.25 0.0371-8.51 0.0643-12.8 0.0415-6.73 0.074-13.5 0.102-20.2 0.0511-12.1 0.113-24.1 0.185-36.2 0.0248-4.22 0.0443-8.44 0.0594-12.7 0.0127-3.25 0.0313-6.5 0.0488-9.75 0.00261-1.16 0.00523-2.31 0.00792-3.5 0.0593-9.3 0.508-17.6 3.98-26.2 0.27-0.695 0.54-1.39 0.818-2.11 1.87-4.76 3.92-9.33 6.37-13.8 0.339-0.634 0.678-1.27 1.03-1.92 1.72-3.14 3.43-5.6 5.97-8.08 1.09-1.27 2.17-2.54 3.25-3.81 9.67-11.1 25.9-24.6 40.8-18.2zm-60 56 1 2zm-1 9 1 4zm0 326v25h1v-25h-1z" fill="#FBFCFE"/>
<path transform="translate(734 371)" d="m0 0c2.05-0.0022 4.09-0.0204 6.13-0.0393 1.3-0.00193 2.61-0.00387 3.95-0.00586 1.18-0.00411 2.36-0.00822 3.58-0.0125 3.32 0.243 3.32 0.243 9.32 2.24v18c-2.25 0.049-4.5 0.098-6.82 0.148-2.19 0.0541-4.38 0.111-6.57 0.169-1.52 0.0382-3.04 0.0731-4.55 0.104-2.19 0.0459-4.37 0.104-6.56 0.164-1.97 0.0471-1.97 0.0471-3.98 0.0952-4.39 0.4-7.1 1.43-10.8 3.77-2.8 4.15-2.26 8.46-2.22 13.3-0.00942 1.06-0.0188 2.12-0.0285 3.21-0.0287 3.39-0.0317 6.79-0.03 10.2-0.00362 3.38-0.0133 6.75-0.0408 10.1-0.0167 2.1-0.0198 4.2-0.00699 6.3-0.0562 7.89-1.41 14.4-5.64 21.1-2.01 3.15-2.01 3.15-1.69 6.44 0.975 2.99 2.28 5.21 3.94 7.88 2.45 5.66 3.42 10 3.26 16.2-0.00992 1.13-0.00992 1.13-0.0201 2.29-0.0232 2.39-0.0667 4.78-0.113 7.17-0.203 13.1-0.203 13.1 0.0547 26.3 0.0539 1.63 0.0539 1.63 0.109 3.29 0.943 3.72 2.52 4.78 5.71 6.81 2.69 0.789 2.69 0.789 5 1 0.108-0.603 0.217-1.21 0.328-1.83 2-6.47 11.7-11.1 17.2-14.3 12.9-6.76 28.6-8.38 42.7-4.4 9.77 3.2 16.7 8.51 24 15.6 3.07 2.98 3.07 2.98 6.96 4.42 2.14-0.173 2.14-0.173 4.85-1.42 1.21-2.41 1.14-3.98 1.17-6.67 0.0202-1.46 0.0202-1.46 0.0409-2.94 0.0104-1.06 0.0209-2.11 0.0316-3.2 0.033-2.23 0.0662-4.46 0.0996-6.69 0.0473-3.52 0.0916-7.04 0.131-10.6 0.04-3.4 0.0915-6.79 0.144-10.2 0.00841-1.04 0.0168-2.08 0.0255-3.15 0.123-7.34 0.253-14.5 4.48-20.7 2.48-3.81 2.6-5.37 1.88-9.88-0.995-1.56-2-3.11-3-4.66-5.14-10.1-3.74-21.7-3.62-32.7 0.0241-3.42 0.0392-6.85 0.0304-10.3-0.00456-2.12 0.00996-4.24 0.0463-6.36-0.00218-5.96-0.365-9.52-4.45-14-3.6-1.2-6.97-1.23-10.7-1.32-0.75-0.0208-1.5-0.0416-2.27-0.063-2.39-0.0653-4.79-0.124-7.18-0.183-1.62-0.0432-3.25-0.0868-4.87-0.131-3.98-0.107-7.96-0.208-11.9-0.307-1.52-3.03-1.14-6.18-1.12-9.5-0.00387-0.69-0.00773-1.38-0.0117-2.09 0.0101-5.16 0.0101-5.16 1.14-7.41 6.07-1.77 12.7-1.22 18.9-1.24 2.24-0.00966 4.47-0.0407 6.71-0.0723 8.99-0.0688 17.5-0.0419 25.2 5.26 10.4 10.9 11.3 21 11.4 35.5 0.0329 1.99 0.0661 3.98 0.0996 5.97 0.0475 3.1 0.092 6.2 0.131 9.29 0.0398 3.02 0.0913 6.03 0.144 9.05 0.0126 1.38 0.0126 1.38 0.0255 2.79 0.0711 8.88 0.0711 8.88 4.23 16.4 0.701 0.505 1.4 1.01 2.12 1.53 4.05 3.23 5.17 5.43 6 10.5-0.543 0.447-1.09 0.895-1.64 1.36-5.58 4.72-9.11 8.26-10.4 15.6-0.103 1.58-0.165 3.16-0.189 4.74-0.0167 0.912-0.0334 1.82-0.0507 2.76-0.0136 0.974-0.0272 1.95-0.0411 2.95-0.0276 1.52-0.0276 1.52-0.0558 3.08-0.0586 3.24-0.111 6.48-0.163 9.72-0.0681 4.26-0.142 8.51-0.219 12.8-0.0136 0.966-0.0272 1.93-0.0411 2.93-0.359 19.8-0.359 19.8-6.85 26.8-3.68 3.3-8.24 7.27-13.4 7.27-0.0198 0.635-0.0396 1.27-0.0601 1.92-0.0958 2.9-0.205 5.8-0.315 8.7-0.0309 0.999-0.0619 2-0.0938 3.03-0.205 5.16-0.6 9.5-2.53 14.3-0.404 1.64-0.8 3.29-1.19 4.94-2.03 7.44-5.36 14.2-8.81 21.1-0.419 0.836-0.839 1.67-1.27 2.53-7.13 14.1-14.9 27.8-23 41.4-1.83 3.11-3.63 6.25-5.42 9.39-0.586 1.02-1.17 2.04-1.78 3.09-1.12 1.95-2.23 3.9-3.33 5.85-0.752 1.3-0.752 1.3-1.52 2.62-0.435 0.764-0.869 1.53-1.32 2.31-1.7 2.09-2.8 2.4-5.43 2.75-7.32-11.7-7.32-11.7-8.65-13.9-0.919-1.46-1.85-2.91-2.8-4.36-0.457-0.704-0.914-1.41-1.38-2.13-0.624-0.946-0.624-0.946-1.26-1.91-0.907-1.74-0.907-1.74-0.907-4.74-0.66-0.33-1.32-0.66-2-1-3.55-4.67-5.7-9.31-7-15h-2c-4.67-9.33-9.33-18.7-14-28-0.392-0.701-0.784-1.4-1.19-2.12-0.812-1.88-0.812-1.88-0.812-5.88-0.66-0.33-1.32-0.66-2-1-2.06-4.12-3.42-7.36-3-12-0.66-0.33-1.32-0.66-2-1 0.33-0.66 0.66-1.32 1-2h-2c-1.98-6.21-3.15-11.7-2.7-18.2 0.579-6.54 0.579-6.54-2.34-12.2-2.58-1.74-5.2-3.17-7.96-4.6-1.92-1.56-3.38-3.11-5-5v-2c-0.66-0.33-1.32-0.66-2-1-2.61-3.62-3.38-6.18-3.43-10.6-0.0297-1.65-0.0297-1.65-0.06-3.34-0.00639-1.18-0.0128-2.35-0.0194-3.57-0.018-1.21-0.0359-2.43-0.0544-3.68-0.0541-3.87-0.088-7.74-0.121-11.6-0.0332-2.63-0.0677-5.25-0.104-7.88-0.085-6.44-0.153-12.9-0.209-19.3h-1c-0.17-0.592-0.34-1.18-0.516-1.79-2.06-6.71-4.55-11.2-10.5-15.2 0.553-3.81 2.15-5.42 4.94-8 4.75-4.41 6.2-7.58 7.06-14 0.0579-2.64 0.0701-5.26 0.0273-7.9-0.0127-1.55-0.025-3.1-0.0371-4.64-0.0245-2.4-0.0523-4.8-0.0862-7.2-0.435-32.9-0.435-32.9 8.1-44.3 9.83-8.86 19.1-9.19 32-9.19zm98 91.2 1 4zm-7 46 1 3zm-129 28 1 2zm20 22 1 3z" fill="#FBFCFE"/>
<path transform="translate(695,91)" d="m0 0c18.9-0.0233 37.8-0.041 56.7-0.0518 8.77-0.00516 17.5-0.0122 26.3-0.0236 7.64-0.00995 15.3-0.0164 22.9-0.0186 4.05-0.00131 8.1-0.00439 12.1-0.0116 3.81-0.00676 7.61-0.00889 11.4-0.00738 1.4-2.76e-4 2.8-0.00228 4.2-0.0061 1.9-0.00494 3.81-0.00319 5.71-0.00105 1.07-9.22e-4 2.14-0.00184 3.24-0.00279 2.39 0.123 2.39 0.123 3.39 1.12 0.494 5.19-0.802 8.42-3 13h-2c-0.154 0.54-0.308 1.08-0.467 1.64-1.88 6.14-4.59 11.3-7.91 16.8-0.992 1.67-1.98 3.35-2.97 5.02-0.465 0.788-0.931 1.58-1.41 2.39-1.89 3.28-3.57 6.64-5.21 10-2.84 5.81-6.18 11.4-9.47 16.9-2.96 5.04-5.58 10.2-8.16 15.4-1.59 3.12-3.37 6.04-5.27 8.98-1.4 2.18-2.66 4.44-3.93 6.7-2.2 3.79-4.53 7.5-6.84 11.2-1.78 2.87-3.5 5.78-5.22 8.69-0.489 0.823-0.978 1.65-1.48 2.49-0.972 1.64-1.94 3.28-2.89 4.92-0.446 0.746-0.892 1.49-1.35 2.26-0.394 0.671-0.788 1.34-1.19 2.03-0.404 0.477-0.807 0.954-1.22 1.45h-3c-1.69-2.21-1.69-2.21-3.56-5.38-0.341-0.571-0.682-1.14-1.03-1.73-3.39-5.74-6.61-11.6-9.81-17.4-2.73-4.97-5.58-9.85-8.63-14.6-0.961-1.85-0.961-1.85-0.961-4.85h-2c-0.32-0.601-0.641-1.2-0.971-1.82-7.86-14.7-16-29.2-24.5-43.6-5-8.5-9.81-17-14.1-25.9-1.6-3.11-3.41-6-5.4-8.88-1.2-2.22-1.53-4.34-1.98-6.82z" fill="#FCFDFF"/>
<path transform="translate(285 776)" d="m0 0c0.865-0.00333 1.73-0.00666 2.62-0.0101 1.83-0.00506 3.66-0.00741 5.49-0.00725 2.78-0.00218 5.57-0.0203 8.35-0.0393 1.78-0.00294 3.57-0.00492 5.35-0.00586 1.24-0.0108 1.24-0.0108 2.5-0.0218 5.9 0.023 11.6 0.567 16.9 3.25v2c2.05 1.24 3.45 2.02 5.88 1.94 2.58-1.14 4.37-2.82 6.37-4.78 5.5-3.62 14.3-2.42 20.6-2.47 1.15-0.029 2.29-0.058 3.47-0.0879 8.54-0.0638 14.1 0.932 20.4 7.09 0.784 1.08 1.53 2.19 2.25 3.31 0.357 0.536 0.713 1.07 1.08 1.62 4.46 8.15 3.42 17.4 3.31 26.4-0.00747 1.85-0.0132 3.7-0.0172 5.54-0.0152 4.84-0.0544 9.68-0.0988 14.5-0.0411 4.95-0.0592 9.89-0.0793 14.8-0.0428 9.69-0.111 19.4-0.195 29.1-3.66 0.776-6.99 1.12-10.7 1.1-1.6-0.00483-1.6-0.00483-3.23-0.00977-1.65-0.0126-1.65-0.0126-3.34-0.0254-1.12-0.00451-2.24-0.00902-3.4-0.0137-2.76-0.0118-5.52-0.0282-8.29-0.0488-1.23-3.68-1.25-7.16-1.35-11-0.0236-0.809-0.0471-1.62-0.0714-2.45-0.074-2.66-0.139-5.33-0.202-7.99-0.0228-0.905-0.0456-1.81-0.0691-2.74-0.453-18.6-0.0612-37.2 0.694-55.8-3.96 0.33-7.92 0.66-12 1-0.33 26.1-0.66 52.1-1 79-28 0-28 0-30-1-1.12-3.37-1.13-5.91-1.13-9.46-0.00175-0.651-0.0035-1.3-0.00531-1.97-0.0044-2.15-0.00149-4.3 0.00189-6.45-6.74e-4 -1.49-0.00164-2.99-0.0029-4.48-0.00147-3.13 6.69e-4 -6.26 0.00534-9.38 0.0057-4.01 0.00241-8.03-0.00357-12-0.00361-3.08-0.00247-6.16 1.28e-4 -9.25 6.68e-4 -1.48-1.55e-4 -2.96-0.00248-4.44-0.00253-2.07 0.00132-4.13 0.0069-6.2 7.96e-4 -1.18 0.00159-2.35 0.00241-3.57 0.127-2.76 0.127-2.76 1.13-4.76-3.96 0.33-7.92 0.66-12 1-0.0155 1.33-0.0155 1.33-0.0312 2.69-0.0978 8.34-0.2 16.7-0.308 25-0.0553 4.29-0.109 8.58-0.158 12.9-0.0476 4.14-0.0999 8.27-0.156 12.4-0.0204 1.58-0.0392 3.16-0.0561 4.75-0.024 2.21-0.054 4.42-0.0856 6.62-0.0155 1.26-0.0311 2.52-0.0471 3.82-0.158 2.82-0.158 2.82-1.16 3.82-2.15 0.0878-4.29 0.107-6.44 0.0977-1.31-0.00322-2.61-0.00645-3.96-0.00977-1.39-0.00836-2.78-0.0168-4.17-0.0254-1.39-0.00501-2.79-0.00958-4.18-0.0137-3.42-0.0118-6.84-0.0283-10.3-0.0488-1.34-4.03-1.14-7.91-1.13-12.1-0.00263-1.4-0.00263-1.4-0.00531-2.82-0.00441-3.09-0.00148-6.17 0.00189-9.26-6.73e-4 -2.14-0.00164-4.28-0.0029-6.42-0.00148-4.49 6.73e-4 -8.98 0.00534-13.5 0.0057-5.76 0.00242-11.5-0.00357-17.3-0.00361-4.42-0.00247-8.84 1.28e-4 -13.3 6.68e-4 -2.12-1.55e-4 -4.25-0.00248-6.37-0.00253-2.97 0.00132-5.93 0.0069-8.9-0.00202-0.882-0.00405-1.76-0.00613-2.67 0.0118-3.39 0.0556-6.19 1.14-9.43 3.92-1.31 7.67-1.16 11.8-1.17z" fill="#F9FAFC"/>
<path transform="translate(986 776)" d="m0 0c0.887-0.00333 1.77-0.00666 2.69-0.0101 1.88-0.00506 3.76-0.00741 5.64-0.00725 2.86-0.00218 5.71-0.0203 8.57-0.0393 1.83-0.00294 3.66-0.00492 5.49-0.00586 0.846-0.00719 1.69-0.0144 2.56-0.0218 7.99 0.0303 14.6 1.15 21.1 6.25 1.62 1.69 1.62 1.69 3 4 0.328 0.504 0.656 1.01 0.994 1.53 4.52 8.2 3.52 17.4 3.43 26.5-0.00493 1.85-0.00822 3.69-0.00996 5.54-0.00761 3.85-0.0281 7.7-0.0591 11.5-0.0398 4.94-0.0576 9.89-0.0673 14.8-0.00994 4.71-0.0298 9.43-0.0511 14.1-0.00509 1.35-0.00509 1.35-0.0103 2.74-0.0115 2.54-0.03 5.07-0.051 7.61-0.00269 0.758-0.00538 1.52-0.00815 2.3-0.0539 5.18-0.0539 5.18-1.17 6.29-2.34 0.0949-4.66 0.126-7 0.114-1.1 2.19e-4 -1.1 2.19e-4 -2.22 4.43e-4 -2.43-6.99e-4 -4.86-0.00849-7.29-0.0163-1.68-0.00186-3.36-0.00329-5.04-0.00429-4.43-0.00383-8.86-0.0137-13.3-0.0247-4.52-0.0102-9.04-0.0148-13.6-0.0198-8.87-0.0107-17.7-0.0278-26.6-0.0488-2.41-3.73-2.29-7.41-2.27-11.7-0.00511-0.771-0.0102-1.54-0.0155-2.34-0.0139-2.55-0.0129-5.09-0.0106-7.64-0.00389-1.77-0.00822-3.55-0.013-5.32-0.00746-3.72-0.00717-7.43-0.00191-11.2 0.00579-4.76-0.0111-9.51-0.0343-14.3-0.0148-3.66-0.0156-7.33-0.0125-11-5.13e-4 -1.75-0.00574-3.51-0.0158-5.26-0.0124-2.46-0.00557-4.91 0.00601-7.37-0.00764-0.72-0.0153-1.44-0.0232-2.18 0.077-7.42 3.07-11.8 8.02-17 3.04-3.13 3.04-3.13 5.38-6.75 3.99-1.33 7.82-1.16 12-1.17zm14.4 24.5c-1.75 0.396-1.75 0.396-3.54 0.801-1.4 0.439-1.4 0.439-2.84 0.887-1.24 2.48-1.12 4.13-1.11 6.91 7.55e-5 1.02 1.51e-4 2.04 2.29e-4 3.09 0.00516 1.11 0.0103 2.21 0.0156 3.35 0.00141 1.13 0.00283 2.26 0.00429 3.42 0.00561 3.62 0.0182 7.23 0.0309 10.9 0.00501 2.45 0.00958 4.9 0.0137 7.34 0.011 6.01 0.0278 12 0.0488 18 5.83 1.5 5.83 1.5 15-1 0.33-13.5 0.66-27.1 1-41h1v-13c-3.77-1.26-5.78-0.587-9.62 0.312z" fill="#F8F9FB"/>
<path transform="translate(461 776)" d="m0 0c0.774-0.00333 1.55-0.00666 2.35-0.0101 1.63-0.00504 3.26-0.00741 4.89-0.00725 2.48-0.00219 4.95-0.0204 7.43-0.0393 1.59-0.00293 3.18-0.00492 4.77-0.00586 0.733-0.00719 1.47-0.0144 2.22-0.0218 8.54 0.0375 14 2.34 20.2 8.15 2.28 2.54 3.25 4.75 3.89 8.1l1 2c1.42 8.79 1.03 17.6 0.879 26.5-0.0243 1.69-0.0482 3.38-0.0715 5.07-0.0625 4.42-0.132 8.85-0.202 13.3-0.071 4.52-0.136 9.05-0.201 13.6-0.129 8.86-0.265 17.7-0.404 26.6h-29c-2.15-4.31-2.25-6.37-2.23-11.1 4.58e-4 -0.678 9.16e-4 -1.36 0.00139-2.05 0.00301-1.43 0.0109-2.85 0.0233-4.28 0.0183-2.19 0.0205-4.38 0.0203-6.56 0.0379-10.7 0.0379-10.7 1.19-13-1.15 0.309-2.31 0.619-3.5 0.938-4.21 1.13-8.04 1.5-12.5 2.06-0.33 11.2-0.66 22.4-1 34h-29c-2.1-4.2-2.3-7.11-2.31-11.7-0.00832-0.766-0.0166-1.53-0.0252-2.32-0.0241-2.53-0.0329-5.06-0.0395-7.6-0.00897-1.77-0.0181-3.53-0.0274-5.3-0.0165-3.7-0.0242-7.41-0.0271-11.1-0.00537-4.73-0.043-9.46-0.0887-14.2-0.0299-3.65-0.037-7.3-0.038-11-0.00419-1.74-0.0166-3.49-0.0375-5.23-0.118-10.7 0.258-18.7 7.69-27 0.648-0.527 1.3-1.05 1.96-1.6 0.651-0.545 1.3-1.09 1.97-1.65 6.22-4.46 12.7-4.57 20.2-4.58zm8.29 24c-1.17 0.162-2.33 0.325-3.53 0.492-3.07 0.373-3.07 0.373-4.97 2.63-0.172 2.73-0.232 5.34-0.188 8.06 6.45e-4 0.746 0.00129 1.49 0.00195 2.26-0.303 3.64-0.303 3.64 1.19 6.68 2.15-0.0643 4.3-0.201 6.44-0.375 1.17-0.0902 2.35-0.18 3.56-0.273 2.92-0.169 2.92-0.169 5-1.35 1.39-6.26 1.09-12.6 1-19-2.88 0-5.65 0.465-8.5 0.875z" fill="#F8F9FB"/>
<path transform="translate(1119 776)" d="m0 0c1.19-0.00375 1.19-0.00375 2.4-0.00757 23-0.0595 23-0.0595 27.5 3.57 2.5 2.56 2.5 2.56 3.5 4.56 0.99 0.33 1.98 0.66 3 1 0.495 0.99 0.495 0.99 1 2 0.343 0.553 0.687 1.11 1.04 1.68 1.33 3.23 1.26 6.03 1.31 9.52 0.0197 1.08 0.0197 1.08 0.0398 2.17 0.0393 2.37 0.0628 4.74 0.0827 7.11 0.00815 0.813 0.0163 1.63 0.0247 2.46 0.0417 4.3 0.0703 8.61 0.0891 12.9 0.0221 4.43 0.0909 8.85 0.17 13.3 0.0525 3.42 0.0691 6.84 0.0762 10.3 0.0097 1.63 0.0328 3.26 0.0701 4.89 0.307 14.3 0.307 14.3-4.52 20-2.22 2.01-2.22 2.01-4.38 3.68-0.529 0.463-1.06 0.927-1.6 1.4-5.5 4.03-12.6 3.15-19.1 3.09-1.32 0.00146-2.63 0.00291-3.99 0.00441-2.77 0.00138-5.55-0.0111-8.32-0.034-3.56-0.0285-7.12-0.0256-10.7-0.0129-3.4 0.00861-6.8-0.00647-10.2-0.02-1.28 0.00294-2.56 0.00587-3.88 0.0089-1.18-0.0127-2.36-0.0254-3.57-0.0384-1.04-0.0054-2.08-0.0108-3.15-0.0164-0.816-0.128-1.63-0.256-2.47-0.388-2.66-3.99-2.27-7.47-2.24-12.1-0.0019-0.932-0.0038-1.86-0.00575-2.82-0.00371-3.09 7e-3 -6.17 0.0182-9.26 0.00119-2.14 0.00164-4.28 0.00139-6.42 0.00157-4.49 0.00986-8.98 0.0233-13.5 0.017-5.76 0.0208-11.5 0.0201-17.3 2.72e-4 -4.42 0.00575-8.84 0.013-13.3 0.00319-2.12 0.00515-4.25 0.00589-6.37 0.00216-2.97 0.0109-5.93 0.0216-8.9-4.53e-4 -0.882-9.06e-4 -1.76-0.00137-2.67 0.0179-3.39 0.0674-6.19 1.15-9.43 12.2-0.997 24.3-1.11 36.6-1.12zm0.375 24.5c-1.27 0.255-2.54 0.51-3.85 0.773-1.53 0.422-1.53 0.422-3.09 0.852-1.24 2.48-1.13 4.12-1.13 6.89-0.00315 1.02-0.0063 2.04-0.00955 3.08 0.00202 1.1 0.00405 2.2 0.00613 3.34-9.57e-4 1.13-0.00191 2.25-0.0029 3.41-6.81e-4 2.38 0.00117 4.77 0.00534 7.15 0.00535 3.67 5.09e-5 7.33-0.00635 11 6.61e-4 2.31 0.00194 4.62 0.00391 6.94-0.00202 1.1-0.00405 2.21-0.00613 3.35 0.00315 1.01 0.0063 2.03 0.00955 3.07 7.96e-4 0.898 0.00159 1.8 0.00241 2.72-0.0996 2.04-0.0996 2.04 1.13 3.04 1.96-0.0644 3.92-0.202 5.88-0.375 1.07-0.0902 2.14-0.18 3.24-0.273 2.95-0.262 2.95-0.262 5.88-1.35 0.33-18.1 0.66-36.3 1-55-3.11 0-6.02 0.751-9.06 1.38z" fill="#F8F9FB"/>
<path transform="translate(676 776)" d="m0 0c1.12 0.00322 2.23 0.00645 3.38 0.00977 1.16 0.00838 2.32 0.0168 3.51 0.0254 1.17 0.00451 2.35 0.00902 3.56 0.0137 2.9 0.0118 5.79 0.0282 8.69 0.0488 1.05 3.14 1.05 5.09 0.914 8.37-0.0438 1.05-0.0877 2.1-0.133 3.18-0.0516 1.1-0.103 2.19-0.156 3.32-0.0438 1.09-0.0877 2.18-0.133 3.3-0.208 4.72-0.464 9.2-1.49 13.8h4c0.605-1.09 0.605-1.09 1.22-2.2 1.51-2.72 3.02-5.44 4.54-8.15 0.972-1.74 1.94-3.49 2.91-5.23 0.619-1.11 1.24-2.22 1.88-3.36 0.848-1.52 0.848-1.52 1.71-3.08 0.574-0.982 1.15-1.96 1.74-2.98 0.588-1.1 1.18-2.21 1.78-3.34 2.22-2.66 2.22-2.66 5.43-3.34 1.24 0.0314 2.47 0.0628 3.75 0.0952 0.66 0.00849 1.32 0.017 2 0.0257 2.1 0.0335 4.2 0.109 6.3 0.185 1.43 0.0301 2.85 0.0575 4.28 0.082 3.49 0.066 6.98 0.169 10.5 0.293-2.64 7.93-6.62 15.2-10.5 22.6-1.16 2.21-2.31 4.42-3.47 6.63-0.51 0.971-1.02 1.94-1.54 2.94-1.53 2.94-3.01 5.9-4.49 8.86 6.27-0.33 12.5-0.66 19-1-0.33 0.99-0.66 1.98-1 3 0.33 0.66 0.66 1.32 1 2 0.0908 1.79 0.118 3.58 0.114 5.37-1.13e-4 1.68-1.13e-4 1.68-2.29e-4 3.4-0.00516 1.21-0.0103 2.43-0.0156 3.68-0.00141 1.24-0.00283 2.48-0.00429 3.76-0.00466 3.3-0.0136 6.6-0.0247 9.89-0.0102 3.36-0.0148 6.73-0.0198 10.1-0.011 6.6-0.0278 13.2-0.0488 19.8-4.36 2.18-10.2 1.23-15 1.25-1.82 0.0309-1.82 0.0309-3.68 0.0625-1.16 0.00516-2.32 0.0103-3.51 0.0156-1.07 0.00935-2.13 0.0187-3.23 0.0283-1.28-0.176-1.28-0.176-2.58-0.356-2.42-3.63-2.23-5.32-2.2-9.64 0.00645-1.3 0.0129-2.6 0.0195-3.94 0.0167-1.37 0.0336-2.74 0.0508-4.12 0.01-1.38 0.0192-2.77 0.0273-4.15 0.0236-3.39 0.0565-6.77 0.0977-10.2-2.42 0.283-4.83 0.576-7.25 0.875-0.682 0.0786-1.36 0.157-2.07 0.238-3.79 0.478-6.2 1.15-9.68 2.89-0.33 9.24-0.66 18.5-1 28h-28c-2.25-4.5-2.25-4.5-2.25-8.07-0.00419-0.801-0.00839-1.6-0.0127-2.43 0.00562-0.869 0.0112-1.74 0.017-2.63-0.0019-0.922-0.0038-1.84-0.00575-2.8-0.0037-3.05 0.00699-6.1 0.0182-9.14 0.00119-2.12 0.00164-4.23 0.00139-6.35 0.00156-4.44 0.00985-8.87 0.0233-13.3 0.017-5.69 0.0208-11.4 0.0201-17.1 2.72e-4 -4.37 0.00575-8.74 0.013-13.1 0.00319-2.1 0.00515-4.2 0.00589-6.3 0.00216-2.93 0.0109-5.86 0.0216-8.79-4.53e-4 -0.871-9.06e-4 -1.74-0.00137-2.64 0.018-3.37 0.0746-6.14 1.15-9.36 3.19-1.28 6.46-1.12 9.86-1.1z" fill="#F8F9FB"/>
<path transform="translate(585 776)" d="m0 0c2.26-0.00219 4.52-0.0204 6.78-0.0393 1.45-0.00293 2.91-0.00492 4.36-0.00586 1.31-0.00411 2.62-0.00822 3.96-0.0125 6.58 0.429 11.2 2 16.1 6.37 1.28 1.09 1.28 1.09 2.59 2.2 2.75 3.62 2.6 6.19 3.04 10.7-5.37 0.999-10.7 2-16.1 2.99-1.83 0.339-3.66 0.678-5.49 1.02-2.63 0.488-5.25 0.974-7.88 1.46-0.821 0.153-1.64 0.306-2.49 0.464-5.79 1.07-5.79 1.07-8.02 1.07v9c8.69-0.637 17.1-2 25.7-3.63 0.962-0.176 1.92-0.352 2.92-0.533 0.852-0.161 1.7-0.322 2.58-0.489 3.59-0.443 7.23-0.351 10.8-0.351-0.33 23.8-0.66 47.5-1 72-4.49 0.749-8.17 1.12-12.6 1.11-1.3-7.55e-5 -2.6-1.51e-4 -3.94-2.29e-4 -1.4-0.00511-2.81-0.0103-4.21-0.0156-1.45-0.00187-2.9-0.00329-4.35-0.00429-3.8-0.0038-7.6-0.0136-11.4-0.0247-3.88-0.0103-7.76-0.0148-11.6-0.0198-7.6-0.0107-15.2-0.0277-22.8-0.0488-1.06-3.19-1.17-5.58-1.19-8.94-0.0142-1.04-0.0284-2.08-0.043-3.15 0.246-3.1 0.353-4.45 2.23-6.91 2.65-0.787 5-1.3 7.71-1.7 1.15-0.191 1.15-0.191 2.32-0.386 2.45-0.404 4.9-0.782 7.35-1.16 1.64-0.269 3.29-0.54 4.93-0.812 11.9-1.94 11.9-1.94 16.7-1.94-0.33-5.61-0.66-11.2-1-17-8.75 0.682-17.2 2.02-25.8 3.63-4.78 0.869-9.28 1.63-14.2 1.37-1.55-4.13-2.25-7.53-2.23-11.9 9.67e-4 -1.12 0.00193-2.24 0.00293-3.39 0.0198-1.76 0.0198-1.76 0.04-3.56 0.00935-1.2 0.0187-2.41 0.0283-3.65 0.0366-3.49 0.0933-6.98 0.159-10.5 0.014-0.9 0.028-1.8 0.0425-2.73 0.0435-2.2 0.116-4.39 0.208-6.59 0.0464-1.17 0.0928-2.34 0.141-3.55 1.36-6.98 7.09-13.1 12.5-17.4 7.03-3.87 15.4-2.87 23.2-2.87zm-35.2 55.2v5h1v-5h-1z" fill="#F5F6F8"/>
<path transform="translate(884 776)" d="m0 0c2.31 0.0161 4.61 6.65e-5 6.92-0.019 1.49 0.00198 2.97 0.00582 4.46 0.0117 1.02-0.00911 1.02-0.00911 2.06-0.0184 6.09 0.0885 10.5 1.72 15.4 5.42 6.99 8.82 8.1 16.9 7.38 28-20 4.41-20 4.41-29 5-2.11-3.16-2.34-4.51-2.62-8.19-0.0748-0.901-0.15-1.8-0.227-2.73-0.049-0.687-0.098-1.37-0.148-2.08h-8v53c5.53 0.575 5.53 0.575 7.69-1.19 1.42-1.85 1.42-1.85 2.51-4.33 2.4-3.31 4.02-3.41 8-4.07 1.21-0.209 2.42-0.419 3.66-0.635 1.89-0.295 1.89-0.295 3.83-0.596 1.27-0.216 2.55-0.432 3.86-0.654 3.15-0.531 6.3-1.04 9.45-1.53 1.22 3.66 1.02 6.93 0.879 10.7-0.0354 1.13-0.0354 1.13-0.0715 2.27-0.0765 2.39-0.161 4.79-0.245 7.18-0.0532 1.62-0.106 3.25-0.158 4.87-0.129 3.98-0.265 7.96-0.404 11.9-3.38 1.13-5.93 1.12-9.49 1.11-0.981 2.19e-4 -0.981 2.19e-4 -1.98 4.43e-4 -2.16-6.96e-4 -4.32-0.00847-6.48-0.0163-1.5-0.00187-3-0.00329-4.49-0.00429-3.94-0.00382-7.88-0.0136-11.8-0.0247-4.02-0.0102-8.04-0.0148-12.1-0.0198-7.89-0.0107-15.8-0.0278-23.7-0.0488-2.39-3.71-2.31-7.37-2.32-11.6-0.00993-0.765-0.0199-1.53-0.0301-2.32-0.0292-2.53-0.0428-5.05-0.0539-7.58-0.0115-1.76-0.023-3.53-0.0345-5.29-0.021-3.7-0.0327-7.4-0.0397-11.1-0.0109-4.72-0.0589-9.44-0.116-14.2-0.0374-3.65-0.0477-7.29-0.0507-10.9-0.00602-1.74-0.022-3.48-0.0484-5.22-0.156-11.1 0.61-19.2 8.44-27.6 8.01-7.9 18.5-7.59 29.1-7.51z" fill="#F7F8FA"/>
<path transform="translate(1202,776)" d="m0 0c6.52-0.0257 13-0.043 19.6-0.0549 2.21-0.00498 4.42-0.0118 6.64-0.0205 13-0.05 25.8 0.149 38.8 1.08-0.33 7.59-0.66 15.2-1 23h-34c-0.33 4.29-0.66 8.58-1 13 3.41 0.853 4.83 1.08 8.11 0.66 0.754-0.0935 1.51-0.187 2.29-0.283 0.777-0.104 1.55-0.208 2.36-0.314 0.793-0.0999 1.59-0.2 2.4-0.303 1.95-0.247 3.9-0.502 5.85-0.76v23c-4.8 1.67-9.48 3.25-14.5 4.12-3.04 0.347-3.04 0.347-5.5 1.88-0.0726 2.19-0.0837 4.38-0.0625 6.56 0.00902 1.2 0.018 2.4 0.0273 3.63 0.0116 0.927 0.0232 1.85 0.0352 2.81 1.44 0.0297 1.44 0.0297 2.91 0.0601 3.55 0.076 7.1 0.165 10.7 0.257 1.54 0.0383 3.08 0.0732 4.62 0.104 2.21 0.0456 4.42 0.104 6.63 0.164 0.69 0.0116 1.38 0.0231 2.09 0.035 4.88 0.151 4.88 0.151 7.11 2.38 0.227 2.15 0.227 2.15 0.195 4.79-0.00645 0.941-0.0129 1.88-0.0195 2.85-0.0168 0.985-0.0335 1.97-0.0508 2.98-0.00902 0.993-0.018 1.99-0.0273 3.01-0.0236 2.46-0.0565 4.91-0.0977 7.37-3.23 1.08-5.55 1.12-8.94 1.11-1.22-7.55e-5 -2.44-1.51e-4 -3.7-2.29e-4 -1.32-0.00516-2.64-0.0103-4-0.0156-1.36-0.00187-2.73-0.00329-4.09-0.00429-3.59-0.00382-7.17-0.0136-10.8-0.0247-3.66-0.0102-7.32-0.0148-11-0.0198-7.18-0.0107-14.4-0.0278-21.5-0.0488-1.59-2.82-2.25-4.83-2.25-8.06-0.00564-0.799-0.0113-1.6-0.0171-2.42 0.00405-0.868 0.0081-1.74 0.0123-2.63-0.0035-0.921-0.00701-1.84-0.0106-2.79-0.0088-3.04-0.00297-6.09 0.00378-9.13-0.00135-2.11-0.00329-4.23-0.0058-6.34-0.00295-4.43 0.00134-8.86 0.0107-13.3 0.0114-5.68 0.00483-11.4-0.00714-17-0.00722-4.37-0.00493-8.73 2.56e-4 -13.1 0.00133-2.1-3.06e-4 -4.19-0.00496-6.29-0.00507-2.93 0.00266-5.86 0.0138-8.78-0.00405-0.868-0.0081-1.74-0.0123-2.63 0.00564-0.799 0.0113-1.6 0.0171-2.42 7.54e-4 -0.692 0.00151-1.38 0.00229-2.1 0.296-2.31 1.11-3.95 2.25-5.96z" fill="#F6F7F9"/>
<path transform="translate(686,255)" d="m0 0c3.76 1.25 5.24 3.18 8 6 0.99 0.825 1.98 1.65 3 2.5 2.84 2.37 5.39 4.89 8 7.5 0.804 0.619 1.61 1.24 2.44 1.88 2.19 1.82 3.77 3.5 5.56 5.69 1.8 2.17 2.98 3.43 5.44 4.88 2.65 1.61 4.02 3.14 6 5.5 2.88 3.43 5.79 5.63 9.56 8.06 4 4.42 4 4.42 4 7h2c-0.325 2.93-0.769 4.7-2.56 7.06-9.6 7.63-20.7 7.75-32.4 6.94-3.29-0.577-6.02-1.5-9-3-1.01-0.476-1.01-0.476-2.03-0.961-5.98-3.24-10.5-8.24-14-14-0.723-3.32-0.723-3.32-1-6h-2c-3.25-9.55-2.54-18.5 1-28 2.28-3.91 4.78-7.78 8-11z" fill="#F9FAFC"/>
<path transform="translate(854,255)" d="m0 0c1.44 2.01 1.44 2.01 3 4.69l1.56 2.64c5.42 10.1 5.7 21.3 3.21 32.3-1.26 3.81-3.13 7.3-5.77 10.3h-2c-0.0412 0.577-0.0825 1.15-0.125 1.75-1.92 4.95-8.28 7.14-12.9 9.25-8.63 3.54-20.4 3.6-29.3 1.05-2.43-1.18-4.52-2.44-6.68-4.05-0.623-0.442-1.25-0.884-1.89-1.34-2.71-2.08-4.02-3.37-5.11-6.66 0.664-0.592 1.33-1.18 2.01-1.79 0.883-0.79 1.77-1.58 2.68-2.39l2.64-2.36c2.63-2.42 5.15-4.93 7.68-7.46 2.75-2.64 5.53-5.26 8.31-7.88 0.721-0.682 1.44-1.36 2.19-2.07 4.11-3.87 8.29-7.65 12.6-11.3 3.82-3.37 7.5-6.91 11.2-10.4 4.54-4.28 4.54-4.28 6.76-4.28z" fill="#FAFBFD"/>
<path transform="translate(733,427)" d="m0 0c9.22-0.0231 18.4-0.0409 27.7-0.0518 4.28-0.00523 8.56-0.0123 12.8-0.0236 4.13-0.0108 8.26-0.0168 12.4-0.0194 1.58-0.00185 3.16-0.00547 4.73-0.0109 2.21-0.00723 4.41-0.00826 6.62-0.0078 1.26-0.00222 2.51-0.00444 3.81-0.00673 2.94 0.12 2.94 0.12 4.94 1.12 0.506 10.2-0.864 17-7.27 25.1-7.16 7.79-15.5 11.4-26 12.1-13.3 0.289-22-3.15-31.7-12.2-3.67-3.61-5.56-7.03-7-12-0.66-0.99-1.32-1.98-2-3-0.23-2.19-0.23-2.19-0.188-4.56 0.00645-0.785 0.0129-1.57 0.0195-2.38 0.168-2.06 0.168-2.06 1.17-4.06zm0 9 1 2z" fill="#FBFCFE"/>
<path transform="translate(465 937)" d="m0 0c1.45 0.0309 1.45 0.0309 2.94 0.0625 0.116 0.782 0.232 1.56 0.351 2.37 0.524 3.52 1.06 7.04 1.59 10.6 0.182 1.23 0.365 2.46 0.553 3.73 0.266 1.75 0.266 1.75 0.537 3.54 0.162 1.08 0.325 2.17 0.492 3.28 0.225 2.43 0.225 2.43 1.48 3.5 0.393 1.68 0.741 3.37 1.06 5.06 0.177 0.919 0.353 1.84 0.535 2.79 0.133 0.71 0.266 1.42 0.402 2.15 3.17-2.57 3.81-5.11 4.81-9 1.66-6.15 3.46-12.2 5.38-18.3 0.262-0.842 0.524-1.68 0.794-2.55 1.9-6.01 1.9-6.01 3.02-7.13 2.33-0.0409 4.67-0.0424 7 0 0.173 0.819 0.173 0.819 0.35 1.65 1.19 5.49 2.6 10.9 4.15 16.3 1.79 6.32 3.35 12.6 4.5 19.1h3c0.0804-0.564 0.161-1.13 0.244-1.71 0.373-2.6 0.752-5.19 1.13-7.79 0.126-0.887 0.253-1.77 0.383-2.69 0.791-5.38 1.85-10.6 3.24-15.8 0.383-1.66 0.76-3.33 1.12-5 0.289-1.32 0.577-2.64 0.875-4h9c-0.231 1.01-0.461 2.02-0.699 3.06-2.33 10.3-4.47 20.6-6.46 31-3.67 18.8-3.67 18.8-5.84 20.9-2.31 0.438-2.31 0.438-5 0-2.19-2.81-2.19-2.81-4-6-0.66-0.99-1.32-1.98-2-3-0.373-1.76-0.679-3.53-0.938-5.31-0.739-4.44-2.01-7.67-4.06-11.7-0.623-2.57-1.11-5.13-1.57-7.73-0.406-2.42-0.406-2.42-1.43-5.27-0.252 0.831-0.503 1.66-0.763 2.52-0.95 3.13-1.9 6.25-2.86 9.38-0.411 1.34-0.82 2.69-1.23 4.04-5.6 18.5-5.6 18.5-8.15 22.1-2.96 1.21-3.87 1.04-7 0v-2h-2c-2.2-7.11-3.73-14.3-5.12-21.6-0.17-0.882-0.341-1.76-0.517-2.67-1.04-5.56-1.8-11.1-2.36-16.7h-1c-0.0269-1.65-0.0463-3.29-0.0625-4.94-0.0116-0.917-0.0232-1.83-0.0352-2.78 0.151-3.53 0.553-3.27 4.16-3.35zm30.9 27.1 1 2zm-30 2 1 2zm1 5 1 4zm1 5 1 2zm33 5 1 2z" fill="#F7F8FA"/>
<path transform="translate(1026,937)" d="m0 0h7c0.392 1.24 0.784 2.48 1.19 3.75 1.6 4.81 3.5 9.45 5.49 14.1 0.9 2.13 1.77 4.28 2.62 6.43 0.419 1.06 0.838 2.12 1.27 3.21 0.373 0.959 0.745 1.92 1.13 2.91 1.41 2.79 3 4.52 5.31 6.59 0.245-0.599 0.49-1.2 0.742-1.82 3.08-7.47 6.25-14.9 9.45-22.3 0.44-1.03 0.88-2.06 1.33-3.13 0.42-0.971 0.84-1.94 1.27-2.94 0.377-0.877 0.753-1.75 1.14-2.66 1.07-2.15 1.07-2.15 3.07-4.15h7c-0.33 18.1-0.66 36.3-1 55-1.65-0.33-3.3-0.66-5-1-1.37-2.74-1.11-4.93-1.1-8 0.00322-1.2 0.00645-2.4 0.00977-3.63 0.0126-1.89 0.0126-1.89 0.0254-3.81 0.00451-1.25 0.00902-2.51 0.0137-3.8 0.00875-2.33 0.0195-4.65 0.033-6.98 0.011-1.93 0.0159-3.86 0.0159-5.79-0.33-0.33-0.66-0.66-1-1-0.762 1.78-0.762 1.78-1.54 3.59-10.4 23.9-10.4 23.9-16.5 26.4-1.9-2.97-3.35-5.51-4-9h-2c-0.289-1.13-0.578-2.27-0.875-3.44-0.371-1.18-0.743-2.35-1.12-3.56-0.66-0.33-1.32-0.66-2-1-0.499-1.66-0.991-3.33-1.43-5.01-0.904-3.13-2.24-6.02-3.57-8.99-1.16 3.49-1.21 6.39-1.32 10.1-0.0208 0.684-0.0416 1.37-0.063 2.07-0.0653 2.18-0.124 4.36-0.183 6.54-0.0432 1.48-0.0868 2.96-0.131 4.44-0.107 3.62-0.208 7.25-0.307 10.9-2.38 0.125-2.38 0.125-5 0-2.45-2.45-2.25-3.1-2.26-6.46-0.00946-1.39-0.00946-1.39-0.0191-2.8 0.00405-1 0.0081-2 0.0123-3.04-0.00191-1.03-0.00383-2.06-0.0058-3.12-0.00136-2.18 0.00234-4.36 0.0107-6.54 0.0107-3.33 1.25e-4 -6.66-0.0127-9.99 0.00132-2.12 0.00389-4.23 0.00781-6.35-0.00405-0.996-0.0081-1.99-0.0123-3.02 0.0577-8.55 0.0577-8.55 2.28-12.7zm-1 5v19h1v-19h-1z" fill="#F7F8FA"/>
<path transform="translate(659 936)" d="m0 0c1.18-0.0122 2.35-0.0245 3.56-0.0371 1.71-0.0029 1.71-0.0029 3.46-0.00586 1.04-0.00411 2.08-0.00822 3.15-0.0125 3.33 0.268 5.96 0.906 9.02 2.24 1.31 3.06 1.31 3.06 2 6l1 1c0.25 3.12 0.185 6.25 0.188 9.38 0.0122 0.877 0.0245 1.75 0.0371 2.66 0.00193 0.843 0.00387 1.69 0.00586 2.55 0.00411 0.774 0.00822 1.55 0.0125 2.35-0.243 2.07-0.243 2.07-2.24 5.07 0.236 3.25 0.443 5.99 2.04 8.87 1.23 2.7 1.2 4.8 1.15 7.75-0.00645 0.962-0.0129 1.92-0.0195 2.91-0.168 2.46-0.168 2.46-1.17 4.46-2.38 0.125-2.38 0.125-5 0-2.75-2.75-2.23-4.48-2.31-8.31-0.319-5.35-0.319-5.35-3-9.94-4.48-2.92-8.64-2.97-13.9-3.31-2.23-0.144-4.46-0.289-6.75-0.438-0.33 7.26-0.66 14.5-1 22-2.48 0.495-2.48 0.495-5 1-2-2-2-2-2.25-4.12 0.00143-0.875 0.00285-1.75 0.00432-2.65-0.00308-0.991-0.00615-1.98-0.00932-3 0.00719-1.07 0.0144-2.15 0.0218-3.25 4.58e-4 -1.1 9.16e-4 -2.2 0.00139-3.33 0.00303-2.33 0.0109-4.66 0.0233-6.99 0.0182-3.57 0.0205-7.14 0.0203-10.7 0.00492-2.26 0.0107-4.52 0.0176-6.78 0.00111-1.07 0.00223-2.14 0.00337-3.25 0.00638-0.994 0.0128-1.99 0.0193-3.01 0.00381-0.876 0.00762-1.75 0.0116-2.65 0.134-2.25 0.134-2.25 1.13-5.25 5.1-1.7 10.5-1.18 15.8-1.19zm-8.81 8.19c-1.52 3.05-1.14 6.22-1.12 9.56-0.00387 0.698-0.00773 1.4-0.0117 2.12-0.303 3.45-0.303 3.45 1.14 6.32 3.28 0.278 6.58 0.232 9.88 0.25 0.924 0.0206 1.85 0.0412 2.8 0.0625 1.33 0.00773 1.33 0.00773 2.69 0.0156 0.816 0.00935 1.63 0.0187 2.47 0.0283 2.71-0.447 3.55-1.15 5.16-3.36 0.873-4.51 1.56-8.57 0-13-3.2-2.14-4-2.24-7.67-2.2-0.893 0.00645-1.79 0.0129-2.71 0.0195-0.929 0.0168-1.86 0.0335-2.81 0.0508-0.94 0.00902-1.88 0.018-2.85 0.0273-2.32 0.0236-4.64 0.0565-6.96 0.0977z" fill="#EEEFF1"/>
<path transform="translate(960 936)" d="m0 0c1.09-0.0309 1.09-0.0309 2.21-0.0625 5.23-0.0373 8.74 0.969 13.4 3.31 0.66 0.33 1.32 0.66 2 1 0.369 1.66 0.696 3.33 1 5 0.333 0.727 0.667 1.45 1.01 2.2 1.91 5.39 1.36 11.3 1.36 16.9 0.00438 2.28 0.0407 4.56 0.0786 6.84 0.00587 1.46 0.00984 2.92 0.0117 4.38 0.00822 1.32 0.0164 2.64 0.0249 4-0.565 4.22-1.83 6.34-4.49 9.63-5.26 3.79-10.7 3.45-16.9 3.38-1.45 0.0174-1.45 0.0174-2.92 0.0352-5.79-0.0237-10.1-0.529-15.1-3.41-1.25-2.62-1.25-2.62-2-5-0.99-0.33-1.98-0.66-3-1-0.0995-4.7-0.172-9.39-0.22-14.1-0.02-1.59-0.0472-3.19-0.082-4.78-0.352-16.6-0.352-16.6 4.3-23.1 6.05-5.02 11.8-5.2 19.4-5.25zm-13.4 11.2c-3.91 6.29-3.52 13-3.5 20.2-0.0284 1.17-0.0567 2.35-0.0859 3.56-0.00258 1.13-0.00516 2.26-0.00781 3.42-0.00709 1.02-0.0142 2.05-0.0215 3.1 0.834 3.7 2.5 4.69 5.62 6.73 5.47 2.75 11 2.55 17 2 3.85-1.49 3.85-1.49 7-4 0.1-2.32 0.131-4.64 0.133-6.96 9.57e-4 -0.699 0.00191-1.4 0.0029-2.12 6.82e-4 -1.48-0.00117-2.97-0.00534-4.45-0.00532-2.26-6.79e-5 -4.53 0.00635-6.79-6.61e-4 -1.44-0.00194-2.88-0.00391-4.32-0.00113-1.31-0.00226-2.63-0.00342-3.98-0.103-2.69-0.212-4.86-1.13-7.38-3.47-2.73-7.72-2.33-11.9-2.31-0.703-0.0161-1.41-0.0322-2.13-0.0488-4.5-0.00422-7.51 0.36-10.9 3.36zm-9 34 1 2z" fill="#EDEEEF"/>
<path transform="translate(263,939)" d="m0 0c1.38 1.81 1.38 1.81 2 4 0.335 0.869 0.67 1.74 1.02 2.63 1.12 3.84 1.33 7.43 1.36 11.4 0.0135 1.13 0.0135 1.13 0.0274 2.29 0.0144 1.59 0.0234 3.17 0.0271 4.76 0.0119 2.42 0.0612 4.83 0.112 7.25 0.00946 1.55 0.0167 3.1 0.0215 4.64 0.0195 0.716 0.0391 1.43 0.0592 2.17-0.0336 3.76-0.568 6.3-2.84 9.24-5.83 5.5-11.6 4.96-19.2 4.94-1.02 0.0161-2.05 0.0322-3.1 0.0488-5.56 0.0036-9.7-0.148-14.5-3.36-5.95-6.43-5.31-13.1-5.41-21.3-0.0215-1.46-0.0554-2.93-0.103-4.39-0.293-9.19-0.0819-17.1 6.51-24.3 8.52-5.58 25.4-4.94 34 0zm-30 8c-3.41 6.31-3.18 13.6-3.19 20.6-0.0122 0.837-0.0245 1.67-0.0371 2.54-0.0104 4.37 0.0348 7.98 2.22 11.9 5.44 4.23 12.3 4.71 19 4 2.76-0.686 4.48-1.54 7-3 2.7-4.58 2.26-9.54 2.19-14.7-6.45e-4 -0.867-0.00129-1.73-0.00195-2.63 0.114-4.49 0.114-4.49-1.19-8.69-0.195-2.53-0.318-5.06-0.426-7.59-0.396-2.48-0.396-2.48-2.12-4.2-3.43-1.69-6.65-1.64-10.4-1.58-0.703-0.0116-1.41-0.0232-2.13-0.0352-4.48 0.0252-7.39 0.639-10.9 3.41zm-9 2 1 2zm35 0v8h1v-8h-1z" fill="#EAEBED"/>
<path transform="translate(1276,937)" d="m0 0c3.38-0.188 3.38-0.188 7 0 2 3 2 3 3 5.06 0.959 2.1 0.959 2.1 3 3.94 0.33 0.99 0.66 1.98 1 3 1.16 1.16 2.33 2.29 3.56 3.38 1.67 1.89 1.85 3.2 2.44 5.62 1.39 2.09 2.82 3.82 4.62 5.56 1.38 1.44 1.38 1.44 2.38 4.44 1.38 3.51 2.61 4.45 6 6-0.00524-1.01-0.0105-2.03-0.0159-3.07-0.0181-3.76-0.0296-7.53-0.0391-11.3-0.00503-1.63-0.0119-3.26-0.0205-4.89-0.0121-2.34-0.0178-4.68-0.0222-7.02-0.00516-0.728-0.0103-1.46-0.0156-2.21-3.46e-4 -3.12 0.119-5.54 1.11-8.52h7c-0.33 18.1-0.66 36.3-1 55h-5c-1.88-1.97-3.4-3.83-5-6-0.913-1.02-1.83-2.04-2.75-3.06-2.19-2.86-2.94-4.41-3.25-7.94-1.48-0.495-1.48-0.495-3-1-0.717-1.65-1.38-3.31-2-5-0.66-0.66-1.32-1.32-2-2-1.01-1.66-2.01-3.33-3-5-0.98-1.35-1.98-2.68-3-4-1-1.33-2-2.67-3-4-1.55 3.11-1.24 6.43-1.32 9.85-0.0208 0.774-0.0416 1.55-0.063 2.35-0.0655 2.48-0.124 4.95-0.183 7.43-0.0432 1.68-0.0868 3.35-0.131 5.03-0.107 4.11-0.208 8.23-0.307 12.3h-6c-0.146-4.53-0.288-9.06-0.427-13.6-0.0476-1.53-0.096-3.07-0.146-4.6-0.271-8.42-0.481-16.8-0.521-25.3-0.00649-0.716-0.013-1.43-0.0197-2.17-0.0028-3.08 0.131-5.44 1.11-8.39zm33 37 1 2z" fill="#F3F4F6"/>
<path transform="translate(178,939)" d="m0 0c2.44 3.75 3.39 6.54 3 11-1.82 0.684-1.82 0.684-4 1-1.43-1.21-1.43-1.21-2.88-2.94-4.43-4.14-9.01-3.7-14.8-3.66-3.85 0.701-5.57 1.85-8.3 4.6-0.879 2.63-0.879 2.63-1 5 6.04 4.93 10 5.25 17.6 5.43 4.55 0.19 7.74 0.569 11.4 3.57 3.88 6.12 4.14 15.1 3 22-2.49 4.01-4.58 5.55-9 7-3.66 0.401-7.32 0.325-11 0.312-0.985 0.0161-1.97 0.0322-2.98 0.0488-8.95 0.00605-8.95 0.00605-13-3.36-1.88-1.88-1.88-1.88-3-4 0.257-2.7 0.792-4.58 2-7 2.38 0.75 2.38 0.75 5 2 0.33 0.681 0.66 1.36 1 2.06 0.495 0.959 0.495 0.959 1 1.94 3.5 0.962 6.88 1.16 10.5 1.19 0.918 0.0142 1.84 0.0284 2.78 0.043 3.19-0.137 3.19-0.137 7.72-2.23 0.33-4.29 0.66-8.58 1-13-3.13-2.09-3.92-2.25-7.49-2.31-0.87-0.0251-1.74-0.0503-2.64-0.0762-1.82-0.035-3.65-0.0663-5.47-0.0938-6.41-0.194-9.85-1.25-14.7-5.58-2.74-4.76-2.53-9.74-1.14-15 1.46-3.74 3.22-6.58 6.46-8.94 8.9-3.36 20.8-4.14 29 1zm-3 34v5h1v-5h-1z" fill="#E2E3E5"/>
<path transform="translate(1119,936)" d="m0 0c4.02-0.0497 8.04-0.0859 12.1-0.11 1.37-0.01 2.73-0.0236 4.1-0.041 1.97-0.0245 3.94-0.0346 5.91-0.0444 1.18-0.0105 2.37-0.0209 3.59-0.0317 3.46 0.235 6.15 0.877 9.34 2.23 0.495 0.99 0.495 0.99 1 2 0.514 0.91 0.514 0.91 1.04 1.84 1.72 3.87 1.37 7.93 1.4 12.1 0.0329 0.894 0.0657 1.79 0.0996 2.71 0.0361 4.42-0.0888 6.7-2.63 10.4-6.2 4.12-13.9 3-21 2.72-2.45-0.0807-2.45-0.0807-5.88 0.215-2.01 3.02-2.27 3.81-2.41 7.23-0.058 1.2-0.058 1.2-0.117 2.43-0.0464 1.25-0.0464 1.25-0.0938 2.53-0.058 1.27-0.058 1.27-0.117 2.56-0.0942 2.08-0.177 4.17-0.258 6.25-2.97 0.495-2.97 0.495-6 1-2.09-3.14-2.25-3.87-2.26-7.45-0.0063-0.898-0.0126-1.8-0.0191-2.72 0.00405-0.969 0.0081-1.94 0.0123-2.94-0.00191-1-0.00383-2-0.0058-3.03-0.00136-2.12 0.00233-4.24 0.0107-6.35 0.0107-3.23 1.27e-4 -6.46-0.0127-9.68 0.00132-2.06 0.00389-4.12 0.00781-6.18-0.00405-0.961-0.0081-1.92-0.0123-2.91 0.0367-5.3 0.538-9.71 2.28-14.7zm8 8c-1.68 4.2-2.34 6.31-2.44 10.6-0.04 0.941-0.0799 1.88-0.121 2.85 0.337 2.68 0.337 2.68 2.58 4.34 3.75 1.49 7.14 1.55 11.1 1.43 0.715-0.00516 1.43-0.0103 2.17-0.0156 3.15-0.0471 5.7-0.233 8.71-1.23 1.35-2.7 1.17-4.87 1.19-7.88 0.0213-1.57 0.0213-1.57 0.043-3.18-0.0684-3.25-0.0684-3.25-2.23-6.95h-21z" fill="#ECEDEF"/>
<path transform="translate(726,937)" d="m0 0h36c-0.33 2.31-0.66 4.62-1 7h-27v16c12.9 0.495 12.9 0.495 26 1-0.33 1.98-0.66 3.96-1 6h-25c-0.66 5.61-1.32 11.2-2 17 14.9 0.495 14.9 0.495 30 1-0.33 2.31-0.66 4.62-1 7h-35c-1.22-2.45-1.13-4.03-1.13-6.77-0.00315-0.991-0.0063-1.98-0.00955-3 0.00202-1.07 0.00405-2.15 0.00613-3.25-9.57e-4 -1.1-0.00191-2.2-0.0029-3.33-6.81e-4 -2.33 0.00117-4.66 0.00534-6.99 0.00534-3.57 5.64e-5 -7.14-0.00635-10.7 6.61e-4 -2.26 0.00194-4.52 0.00391-6.78-0.00202-1.07-0.00405-2.14-0.00613-3.25 0.00473-1.49 0.00473-1.49 0.00955-3.01 7.96e-4 -0.876 0.00159-1.75 0.00241-2.65 0.127-2.25 0.127-2.25 1.13-5.25z" fill="#E3E4E5"/>
<path transform="translate(584,938)" d="m0 0v3c0.704 1.64 1.41 3.28 2.14 4.91 1.29 3.13 2.16 6.37 3.11 9.62 1.08 3.56 2.41 7 3.75 10.5 3.2 8.52 6.31 17 8 26h-5c-0.33-0.99-0.66-1.98-1-3-0.99-0.33-1.98-0.66-3-1-0.66-2.97-1.32-5.94-2-9h-21c-1.65 4.29-3.3 8.58-5 13h-7c-1.13-3.38-0.908-3.97 0.258-7.18 0.293-0.821 0.587-1.64 0.889-2.49 0.323-0.874 0.646-1.75 0.978-2.65 0.325-0.901 0.65-1.8 0.984-2.73 0.655-1.82 1.31-3.63 1.98-5.45 0.773-2.12 1.53-4.25 2.28-6.38 1.19-3.38 2.41-6.76 3.63-10.1 0.378-1.05 0.378-1.05 0.763-2.11 0.802-2.21 1.61-4.43 2.42-6.64 0.25-0.693 0.5-1.39 0.758-2.1 1.07-2.89 1.85-4.94 4.05-7.15 3.36-1.34 4.96-0.849 8 1zm-5 11c-2.75 6.57-5.07 13.1-7 20 1.11 1.34 1.11 1.34 3.94 1.1 1.19-0.0116 2.39-0.0232 3.62-0.0352 1.2-0.00902 2.4-0.018 3.63-0.0273 1.39-0.0174 1.39-0.0174 2.81-0.0352-0.115-1.42-0.243-2.83-0.375-4.25-0.0696-0.789-0.139-1.58-0.211-2.39-0.433-2.47-1.25-4.16-2.41-6.36-0.33-1.22-0.66-2.43-1-3.69-0.33-1.09-0.66-2.19-1-3.31-0.66-0.33-1.32-0.66-2-1zm7 18 1 2zm7 19 1 2z" fill="#F4F5F7"/>
<path transform="translate(1216,936)" d="m0 0c1.51 4.52 3.02 9.04 4.5 13.6 0.247 0.752 0.495 1.5 0.75 2.28 0.502 1.53 1 3.05 1.5 4.58 1.53 4.64 3.3 9.09 5.25 13.6 1.11 2.86 2.15 5.74 3.19 8.62 0.273 0.737 0.545 1.47 0.826 2.23 1.37 3.84 2.35 7 1.99 11.1-5.64-1.47-5.64-1.47-7.31-3.94-2.69-8.06-2.69-8.06-2.69-10.1-10.4 0.495-10.4 0.495-21 1-1.65 3.96-3.3 7.92-5 12h-7c-1.2-3.6-0.726-4.26 0.75-7.62 2.39-5.52 4.21-11.2 6.06-16.9 7.58-23.4 7.58-23.4 11.2-29.5 2.46-1.23 4.28-1.07 7-1zm-4 14c-4.33 9.7-4.33 9.7-6 20h13c-0.45-2.77-0.909-5.54-1.38-8.31-0.126-0.786-0.253-1.57-0.383-2.38l-0.391-2.29c-0.115-0.696-0.23-1.39-0.349-2.11-0.474-2.21-0.474-2.21-2.5-4.9h-2zm7 16 1 3z" fill="#F5F6F8"/>
<path transform="translate(877 936)" d="m0 0c1.1-0.0309 1.1-0.0309 2.22-0.0625 5.23-0.0371 8.84 0.842 13.5 3.31 2.25 3.68 2.5 7.76 3 12-4.98-0.464-7.2-1.86-11-5-4.44-1.93-8.18-2.43-13-2-3.98 1.58-5.61 2.41-8 6-1.2 6.65-1.12 13.3-1.06 20 0.00451 1.06 0.00902 2.12 0.0137 3.21 0.0117 2.6 0.0281 5.19 0.0488 7.79 0.99 0.33 1.98 0.66 3 1v2c5.79 1.65 12.2 2 17.9-0.25 3.15-1.57 3.15-1.57 5.25-3.94 1.88-1.81 1.88-1.81 4.62-2.06 0.742 0.0825 1.49 0.165 2.25 0.25 0.812 2.62 0.812 2.62 1 6-2.53 3.76-4.78 6.33-9 8-3.61 0.417-7.24 0.324-10.9 0.312-0.981 0.0161-1.96 0.0322-2.97 0.0488-5.43 0.00366-9.55-0.151-14.2-3.36-1.78-2.22-2.73-4.42-4-7h-1c-0.124-4.7-0.215-9.39-0.275-14.1-0.025-1.59-0.059-3.19-0.103-4.78-0.425-16-0.425-16 4.04-21.8 5.41-5.37 11.4-5.52 18.6-5.57z" fill="#E7E8E9"/>
<path transform="translate(311,937)" d="m0 0h35c-0.33 2.31-0.66 4.62-1 7h-26v16c7.92 0.33 15.8 0.66 24 1-0.33 1.98-0.66 3.96-1 6-7.59 0.33-15.2 0.66-23 1-1.2 2.41-1.2 4.1-1.32 6.79-0.0419 0.941-0.0838 1.88-0.127 2.85-0.0393 0.985-0.0786 1.97-0.119 2.98-0.0432 0.993-0.0864 1.99-0.131 3.01-0.106 2.46-0.208 4.91-0.307 7.37h-6c-1.21-2.42-1.13-3.97-1.13-6.68-0.00315-0.971-0.0063-1.94-0.00955-2.94 0.00202-1.05 0.00405-2.1 0.00613-3.19-9.57e-4 -1.08-0.00191-2.16-0.0029-3.27-6.81e-4 -2.28 0.00117-4.56 0.00534-6.85 0.00534-3.5 5.64e-5 -7-0.00635-10.5 6.61e-4 -2.21 0.00194-4.43 0.00391-6.64-0.00202-1.05-0.00405-2.1-0.00613-3.18 0.00315-0.974 0.0063-1.95 0.00955-2.95 0.00119-1.29 0.00119-1.29 0.00241-2.6 0.127-2.21 0.127-2.21 1.13-5.21z" fill="#E7E8E9"/>
<path transform="translate(1358,936)" d="m0 0c2.01 0.287 4.01 0.619 6 1 0.33 0.99 0.66 1.98 1 3 0.66 0.66 1.32 1.32 2 2 1.04 2.32 2.04 4.65 3 7h2c0.433 1.09 0.866 2.19 1.31 3.31 1.18 2.76 2.21 4.86 4.69 6.69h2c1.39-1.88 1.39-1.88 2.75-4.3 0.526-0.893 1.05-1.79 1.59-2.71 0.82-1.42 0.82-1.42 1.66-2.86 1.08-1.85 2.16-3.7 3.25-5.55 0.719-1.24 0.719-1.24 1.45-2.51 1.3-2.06 1.3-2.06 3.3-4.06 3.62-0.125 3.62-0.125 7 0-3.62 10.2-9.05 19-14.8 28.1-2.23 3.69-3.4 6.33-3.57 10.7-0.0387 0.889-0.0773 1.78-0.117 2.7-0.0464 1.38-0.0464 1.38-0.0938 2.79-0.0387 0.936-0.0773 1.87-0.117 2.84-0.0941 2.3-0.18 4.61-0.258 6.91h-7c-1.16-2.32-1.1-3.6-1.06-6.18 0.00773-0.828 0.0155-1.66 0.0234-2.51 0.0259-1.74 0.0519-3.48 0.0781-5.22 0.132-6.12 0.132-6.12-1.04-12.1-0.66-0.33-1.32-0.66-2-1-3-4.5-3-4.5-3-7-0.66-0.33-1.32-0.66-2-1-0.464-1.49-0.464-1.49-0.938-3-0.351-0.99-0.701-1.98-1.06-3-0.99-0.33-1.98-0.66-3-1-1.94-3.89-3.49-7.66-4-12 0.33-0.33 0.66-0.66 1-1z" fill="#F1F2F4"/>
<path transform="translate(388 936)" d="m0 0c1.6 1.59e-4 3.21 0.00585 4.81 0.0159 0.842 0.00141 1.68 0.00283 2.55 0.00429 2.7 0.00562 5.4 0.0182 8.1 0.0309 1.83 0.00501 3.65 0.00958 5.48 0.0137 4.49 0.0111 8.97 0.0283 13.5 0.0488v7c-0.99 0.165-1.98 0.33-3 0.5-0.557 0.0928-1.11 0.186-1.69 0.281-3.42 0.324-6.87 0.219-10.3 0.219-0.33 15.8-0.66 31.7-1 48h-5c-2.42-2.42-2.26-3.04-2.32-6.36-0.0199-0.901-0.0397-1.8-0.0602-2.73-0.0116-0.974-0.0231-1.95-0.035-2.95-0.0194-0.996-0.0387-1.99-0.0587-3.02-0.0599-3.19-0.106-6.38-0.152-9.57-0.0382-2.16-0.0772-4.32-0.117-6.48-0.0962-5.3-0.181-10.6-0.258-15.9-0.759-0.0606-1.52-0.121-2.3-0.184-0.994-0.0838-1.99-0.168-3.01-0.254-0.986-0.0812-1.97-0.162-2.99-0.246-2.7-0.316-2.7-0.316-5.7-1.32-0.381-1.99-0.713-3.99-1-6 1-1 1-1 4.6-1.11z" fill="#EBECEE"/>
<path transform="translate(1080,814)" d="m0 0h1v33h-1v-33z" fill="#FCFDFF"/>
<path transform="translate(846,800)" d="m0 0h1v30h-1v-30z" fill="#FCFDFF"/>
<path transform="translate(1274,964)" d="m0 0h1v24h-1v-24z" fill="#FCFDFF"/>
<path transform="translate(973,182)" d="m0 0h1v21h-1v-21z" fill="#000100"/>
<path transform="translate(724,958)" d="m0 0h1v15h-1v-15z" fill="#FCFDFF"/>
<path transform="translate(920,856)" d="m0 0h1v13h-1v-13z" fill="#000100"/>
<path transform="translate(1126,949)" d="m0 0h1v11h-1v-11z" fill="#000100"/>
<path transform="translate(476,801)" d="m0 0h1v10h-1v-10z" fill="#FCFDFF"/>
<path transform="translate(1199,792)" d="m0 0h1v7h-1v-7z" fill="#FCFDFF"/>
<path transform="translate(854,968)" d="m0 0h1v6h-1v-6z" fill="#FCFDFF"/>
<path transform="translate(1274,951)" d="m0 0h1v6h-1v-6z" fill="#FCFDFF"/>
<path transform="translate(1267,783)" d="m0 0h1v6h-1v-6z" fill="#000100"/>
<path transform="translate(945,975)" d="m0 0h1v5h-1v-5z" fill="#000100"/>
<path transform="translate(973,505)" d="m0 0h1v5h-1v-5z" fill="#000100"/>
<path transform="translate(896,979)" d="m0 0h2c-0.33 0.66-0.66 1.32-1 2-0.33-0.66-0.66-1.32-1-2z" fill="#000100"/>
<path transform="translate(857,463)" d="m0 0c0.66 0.66 1.32 1.32 2 2h-2v-2z" fill="#000100"/>
<path transform="translate(671,138)" d="m0 0c3 1 3 1 3 1z" fill="#000100"/>
<path transform="translate(1265,855)" d="m0 0 2 1z" fill="#000100"/>
<path transform="translate(643,139)" d="m0 0 2 1z" fill="#000100"/>
</svg>
