<?xml version="1.0" encoding="UTF-8"?>
<svg version="1.1" viewBox="0 0 1600 1064" width="1280" height="1280" xmlns="http://www.w3.org/2000/svg">
<path transform="translate(641 79.1)" d="m0 0c11.3 6.77 21.4 14.9 31.1 23.8 2.04 1.87 4.12 3.68 6.23 5.48 3.25 2.85 6.43 5.77 9.56 8.75 0.868 0.819 1.74 1.64 2.63 2.48 0.597 0.77 1.19 1.54 1.81 2.33-0.387 2.15-0.387 2.15-1 4-1.09 0.0219-1.09 0.0219-2.2 0.0442-3.35 0.0754-6.7 0.172-10.1 0.268-1.71 0.0338-1.71 0.0338-3.45 0.0684-11.7 0.366-25.1 1.86-33.6 10.7-5.97 7.86-6.12 17.1-6.07 26.6-0.00537 1.23-0.0107 2.47-0.0163 3.74-0.00974 2.67-0.0142 5.33-0.00964 8 0.00687 4.23-0.00917 8.46-0.0284 12.7-0.0377 8.99-0.0506 18-0.0609 27-0.0111 9.69-0.0268 19.4-0.0707 29.1-0.0152 3.51-0.0243 7.02-0.0186 10.5 0.0451 29.4-3.34 51.3-23.3 74.3-1.37 1.84-1.37 1.84-0.865 3.85 0.74 2.17 1.61 3.62 2.97 5.45 0.686 0.948 0.686 0.948 1.39 1.91 0.733 1.01 0.733 1.01 1.48 2.03 17.6 25 19.2 51.9 19 81.6-0.0353 3.92-0.0555 7.83-0.0718 11.7-0.0478 11.1-0.12 22.2-0.209 33.3-0.0545 6.84-0.0877 13.7-0.11 20.5-0.0124 2.59-0.0323 5.18-0.0602 7.77-0.0386 3.62-0.0522 7.23-0.0606 10.9-0.0175 1.06-0.035 2.11-0.0531 3.2 0.0251 9.57 2.61 17.9 9.34 24.9 9.47 7.74 20.8 7.52 32.4 7.55 1.63 0.0232 3.26 0.0486 4.89 0.0762 3.95 0.0622 7.9 0.095 11.9 0.111 0.843 1.94 1.68 3.88 2.53 5.82 0.265 0.61 0.529 1.22 0.802 1.85 1.46 3.38 2.93 6.75 4.39 10.1 0.597 1.38 1.19 2.76 1.79 4.14 0.297 0.687 0.594 1.37 0.901 2.08 1.81 4.17 3.63 8.34 5.46 12.5 0.815 1.87 1.63 3.73 2.45 5.6 0.378 0.85 0.757 1.7 1.15 2.58 0.51 1.17 0.51 1.17 1.03 2.37 0.294 0.668 0.589 1.34 0.892 2.02 0.62 1.91 0.62 1.91 0.62 5.91-80.7 3.24-80.7 3.24-107-19.9-0.753-0.705-1.51-1.41-2.28-2.14-0.944-0.826-0.944-0.826-1.91-1.67-15.1-13.9-23.7-34.4-24.6-54.6-0.0703-2.7-0.125-5.4-0.166-8.1-0.0326-1.54-0.0659-3.07-0.0998-4.61-0.541-26.6-0.549-53.1-0.638-79.7-0.021-6.1-0.0562-12.2-0.101-18.3-0.0141-2.3-0.0229-4.59-0.0261-6.89-0.00492-3.19-0.0281-6.38-0.0553-9.57 0.00301-0.927 0.00601-1.85 0.00911-2.81-0.152-12-4.45-23.2-12.6-32.1-5.98-5.58-12.7-10.3-19.3-15-3.31-2.38-6.42-4.94-9.52-7.58 0.262-3.22 1.13-4.13 3.52-6.41 1.09-0.892 2.19-1.78 3.29-2.65 1.19-0.975 2.37-1.95 3.56-2.93 0.907-0.746 0.907-0.746 1.83-1.51 13.2-11.1 25.7-22.7 28.8-40.5 0.284-4.18 0.28-8.35 0.271-12.5 0.00784-1.86 0.00784-1.86 0.0158-3.75 0.0102-2.68 0.017-5.36 0.0179-8.05 0.00196-4.26 0.0201-8.52 0.0408-12.8 0.049-10.6 0.0799-21.2 0.101-31.8 0.0166-8.22 0.0398-16.4 0.083-24.7 0.018-3.53 0.0304-7.06 0.0287-10.6-0.00948-27.6 0.923-56.2 21-77.5 0.812-0.759 1.62-1.52 2.46-2.3l2.15-2.14c6.93-6.57 14.6-11.2 22.9-15.9 0.683-0.414 1.37-0.828 2.07-1.25 3.81-1.47 6.93-1.17 10.6 0.398z" fill="#000100"/>
<path transform="translate(954 80.1)" d="m0 0c6.71 3.49 12.4 8.1 18.2 12.9 1.13 0.799 1.13 0.799 2.29 1.61 0.566 0.458 1.13 0.915 1.71 1.39v2h2c1.87 2.09 3.6 4.17 5.31 6.38 0.498 0.641 0.995 1.28 1.51 1.94 3.78 4.96 6.86 9.87 9.18 15.7 0.366 0.897 0.732 1.79 1.11 2.72 6.22 16.8 5.19 34.9 5.2 52.5 0.00453 3.53 0.0226 7.06 0.0398 10.6 0.0488 10.5 0.08 20.9 0.101 31.4 0.0166 8.16 0.0396 16.3 0.083 24.5 0.0216 4.18 0.0299 8.36 0.0276 12.5 0.00208 3.23 0.0235 6.45 0.0417 9.68-0.00458 1.13-0.00915 2.27-0.0139 3.44 0.171 19.2 7.01 32.4 20.4 45.6 6.67 6.42 13.7 12.3 21 18-0.84 4.85-4.01 6.78-7.75 9.62-0.672 0.527-1.34 1.05-2.04 1.6-3.24 2.54-6.52 5.02-9.86 7.43-11.1 8.14-18.2 17.3-20.9 31.1-0.441 3.04-0.593 5.9-0.601 8.97-0.00545 1.13-0.0109 2.26-0.0165 3.42-0.00104 1.22-0.00208 2.45-0.00316 3.71-0.0078 2-0.0156 3.99-0.0236 5.99-0.0077 2.14-0.0131 4.28-0.018 6.42-0.0107 4.48-0.031 8.96-0.0531 13.4-0.0617 12.7-0.116 25.5-0.149 38.2-0.0185 7.04-0.0475 14.1-0.088 21.1-0.0209 3.71-0.0365 7.43-0.0388 11.1-0.0243 30.3-2.77 57.2-24.7 80.1-22.7 21.7-51.9 24.2-81.7 23.9-3.39-0.0311-6.79-0.0445-10.2-0.0595-6.61-0.0328-13.2-0.0827-19.8-0.146 0.695-3.69 1.66-6.87 3.15-10.3 0.442-1.04 0.885-2.07 1.34-3.14 0.477-1.1 0.953-2.21 1.44-3.34 0.995-2.33 1.99-4.65 2.98-6.98 0.509-1.19 1.02-2.38 1.54-3.6 2.44-5.73 4.83-11.5 7.22-17.2 0.434-1.04 0.867-2.09 1.31-3.16 1-2.4 2-4.81 3-7.22 0.932-0.00935 1.86-0.0187 2.82-0.0283 3.52-0.0445 7.04-0.106 10.6-0.179 1.51-0.0279 3.02-0.0493 4.54-0.0635 12.2-0.122 25.2-0.614 34.5-9.67 5-6.5 6.71-14.6 6.72-22.6 0.00401-1.11 0.00802-2.22 0.0121-3.37-5.29e-4 -1.21-0.00106-2.42-0.0016-3.67 0.00533-1.97 0.0107-3.94 0.0162-5.9 0.00519-2.11 0.00811-4.22 0.0106-6.34 0.00594-4.42 0.0225-8.84 0.0413-13.3 0.00634-1.52 0.0127-3.03 0.019-4.55 0.00317-0.76 0.00633-1.52 0.00959-2.3 0.0419-10.3 0.075-20.6 0.0874-30.8 0.00843-6.94 0.0311-13.9 0.0694-20.8 0.0196-3.67 0.0322-7.33 0.0272-11-0.0395-35.2-0.0395-35.2 8.27-50.5 0.337-0.649 0.673-1.3 1.02-1.97 4.34-8.13 9.75-15.5 15.3-22.8-1.58-3.39-3.53-6.4-5.62-9.5-0.71-1.07-1.42-2.13-2.15-3.23-1.42-2.09-2.87-4.15-4.35-6.2-7.25-10.2-12-22.1-12-34.7-0.00545-1.12-0.0109-2.24-0.0165-3.39-0.00104-1.22-0.00208-2.44-0.00316-3.69-0.0078-1.98-0.0156-3.97-0.0236-5.95-0.0077-2.13-0.0131-4.25-0.018-6.38-0.0107-4.44-0.031-8.89-0.0531-13.3-0.0618-12.6-0.116-25.3-0.149-37.9-0.0184-6.98-0.0474-14-0.088-20.9-0.021-3.69-0.0365-7.38-0.0388-11.1-0.00256-4.12-0.0281-8.24-0.0553-12.4 0.00301-1.21 0.00601-2.42 0.00911-3.66-0.0938-9.59-1.35-18.3-7.56-25.9-9.79-9.21-23.3-9.11-35.9-9.38-1.46-0.0382-2.91-0.0773-4.37-0.117-3.54-0.0952-7.09-0.18-10.6-0.258 3.23-8.44 10.3-13.1 17.2-18.7 4.42-3.63 8.61-7.48 12.8-11.3 23.4-21 23.4-21 36.8-15.9z" fill="#000100"/>
<path transform="translate(760,366)" d="m0 0c1.04 0.045 1.04 0.045 2.09 0.0908 2.34 0.106 4.69 0.223 7.03 0.347 0.76 0.0391 1.52 0.0781 2.3 0.118 5.45 0.325 5.45 0.325 6.57 1.44 0.127 2.8 0.185 5.57 0.188 8.38 0.0122 0.781 0.0245 1.56 0.0371 2.37 0.0101 3.93 0.00477 5.91-2.22 9.26-2.55 0.314-4.87 0.441-7.42 0.441-0.738 0.0132-1.48 0.0264-2.24 0.04-2.36 0.041-4.73 0.0626-7.09 0.0811-2.35 0.0239-4.7 0.0522-7.05 0.0918-1.46 0.0242-2.92 0.0392-4.39 0.0436-4.28 0.0647-7.93 0.439-11.8 2.3-1.01 2.79-1.13 5.45-1.16 8.39-0.0154 1.29-0.0154 1.29-0.0311 2.61-0.0073 0.926-0.0146 1.85-0.0221 2.81-0.0281 1.98-0.0568 3.97-0.0859 5.95-0.041 3.11-0.0779 6.22-0.104 9.33-0.256 27.7-0.256 27.7-7.71 39-1.07 1.89-1.07 1.89-0.684 3.92 1.18 3.01 2.86 5.65 4.54 8.41 3.49 7.26 3.57 14.5 3.63 22.4 0.017 1.11 0.034 2.23 0.0515 3.37 0.0529 3.54 0.0933 7.07 0.132 10.6 0.044 3.55 0.0906 7.11 0.143 10.7 0.0319 2.21 0.0588 4.41 0.0802 6.62 0.0135 0.995 0.027 1.99 0.0409 3.02 0.00951 0.875 0.019 1.75 0.0288 2.65 0.0602 2.41 0.0602 2.41 1.14 5.24 3.51 1.23 3.51 1.23 7 2 0.619-0.825 1.24-1.65 1.88-2.5 9.32-11.1 22.8-18.4 37.1-20.5 19.2-1.4 33.7 3.37 48.5 15.8 2.6 2.33 5.06 4.75 7.51 7.25 4.4-1.71 4.4-1.71 7.18-5.3 0.828-2.72 1.08-4.86 1.09-7.7 0.0102-0.968 0.0204-1.94 0.0309-2.93 0.00214-1.04 0.00428-2.07 0.00648-3.14 0.0252-2.22 0.0506-4.43 0.0762-6.65 0.0287-3.48 0.0527-6.96 0.0715-10.4 0.0218-3.37 0.0613-6.74 0.102-10.1 1.16e-4 -1.03 2.32e-4 -2.05 3.51e-4 -3.11 0.106-7.79 0.964-15.5 5.69-21.9 2.02-2.49 2.02-2.49 1.52-5.07-0.789-2.7-1.83-4.77-3.27-7.18-2.67-4.48-3.61-7.97-3.67-13.2-0.0135-0.938-0.027-1.88-0.0409-2.84-0.0157-1.51-0.0157-1.51-0.0316-3.05-0.0329-2.14-0.0662-4.29-0.0996-6.43-0.0474-3.37-0.0918-6.74-0.131-10.1-0.0398-3.26-0.0914-6.52-0.144-9.77-0.0126-1.5-0.0126-1.5-0.0255-3.03-0.0644-7.74-0.0644-7.74-2.35-15-4.8-2.16-9.7-2.33-14.9-2.41-0.723-0.0194-1.45-0.0387-2.19-0.0587-2.28-0.0592-4.56-0.106-6.85-0.152-1.56-0.0382-3.12-0.0773-4.67-0.117-3.8-0.0954-7.59-0.18-11.4-0.258-1.9-4.36-2.27-8.04-2.19-12.8 9.67e-4 -1.03 9.67e-4 -1.03 0.00195-2.07 0.0449-5.04 0.0449-5.04 1.19-6.18 16.2-2.67 38.7-4.16 52.8 5.25 7 5.6 9.47 12.1 11.2 20.8 0.422 4.22 0.506 8.41 0.555 12.6 0.058 2.39 0.117 4.79 0.176 7.18 0.0763 3.73 0.145 7.46 0.203 11.2 0.0614 3.63 0.152 7.26 0.247 10.9 0.0128 1.67 0.0128 1.67 0.0258 3.37 0.2 6.97 1.26 10.4 5.79 15.7v2h2v2h2v2h2c0.66 1.32 1.32 2.64 2 4-0.603 0.424-1.21 0.848-1.83 1.29-6.79 4.98-10.8 9.15-12.2 17.7-0.0988 1.63-0.155 3.27-0.174 4.91-0.0202 1.42-0.0202 1.42-0.0409 2.87-0.0104 1.01-0.0209 2.03-0.0316 3.07-0.0329 2.17-0.0662 4.34-0.0996 6.51-0.0473 3.41-0.0917 6.81-0.131 10.2-0.04 3.3-0.0915 6.6-0.144 9.9-0.00841 1-0.0168 2.01-0.0255 3.04-0.173 10-0.892 20-8.25 27.4-7.84 7.09-7.84 7.09-13.1 7.09 0.0348 1.06 0.0696 2.13 0.105 3.23 0.745 32.6-17.2 61.4-33.1 88.8-0.972 1.69-1.94 3.37-2.91 5.06-1.8 3.14-3.62 6.26-5.45 9.39-1.84 3.15-3.63 6.32-5.41 9.51-0.449 0.795-0.898 1.59-1.36 2.41-0.854 1.51-1.7 3.03-2.53 4.56-1.16 2.03-1.16 2.03-3.35 5.08h-4c-1.46-1.59-1.46-1.59-2.81-3.86-0.512-0.839-1.02-1.68-1.55-2.54-0.54-0.92-1.08-1.84-1.64-2.79-0.57-0.947-1.14-1.89-1.73-2.87-1.78-2.97-3.53-5.95-5.27-8.94-0.528-0.902-1.06-1.8-1.6-2.73-3.04-5.21-6.02-10.5-8.96-15.7-1.38-2.45-2.79-4.89-4.21-7.33-28.1-48.8-28.1-48.8-25.6-72.7 0.175-3.41 0.175-3.41-0.625-6.56-2.53-2.44-5.06-3.84-8.16-5.46-6.29-3.41-9.57-8.86-11.8-15.5-1.14-6.11-1.17-12.1-1.21-18.3-0.0281-2.22-0.0567-4.44-0.0859-6.66-0.0413-3.47-0.0782-6.95-0.104-10.4-0.0277-3.37-0.0735-6.74-0.122-10.1-0.00325-1.03-0.00651-2.06-0.00986-3.12-0.124-7.29-0.852-13.3-5.78-19-2.87-2.47-5.75-4.92-8.69-7.31 0.866-0.99 1.73-1.98 2.62-3 2.24-2.64 4.47-5.29 6.62-8 0.48-0.598 0.959-1.2 1.45-1.81 3-5.06 3.54-10.3 3.46-16.1-0.0118-1.3-0.0237-2.59-0.0359-3.92-0.0103-0.672-0.0207-1.34-0.0313-2.04-0.0512-3.49-0.0631-6.98-0.0773-10.5-0.00498-1.02-0.00498-1.02-0.0101-2.05-0.0607-16-0.0258-32.3 11.8-44.4 9.28-7.56 24.9-6.7 36.2-6.18z" fill="#000100"/>
<path transform="translate(712,78)" d="m0 0h154c-1.43 4.28-2.76 7.75-4.8 11.7-0.558 1.08-1.12 2.16-1.69 3.27-0.901 1.72-0.901 1.72-1.82 3.48-0.31 0.595-0.62 1.19-0.939 1.8-4.79 9.2-9.77 18.3-14.9 27.3-3.86 6.75-7.59 13.6-11.3 20.4-6.56 12.2-13.5 24.1-20.6 36.1-0.709 1.2-1.42 2.4-2.13 3.6-11.5 19.5-11.5 19.5-16.9 28.4-4-1.33-4.4-2.95-6.44-6.59-0.485-0.857-0.485-0.857-0.981-1.73-1.06-1.87-2.1-3.74-3.14-5.62-0.729-1.3-1.46-2.59-2.19-3.88-4.22-7.49-8.38-15-12.5-22.5-3.37-6.09-6.88-12.1-10.4-18.1-5.76-9.81-11.3-19.7-16.8-29.7-3.9-7.05-7.84-14.1-11.9-21.1-0.483-0.842-0.965-1.68-1.46-2.55-0.933-1.63-1.87-3.26-2.8-4.88-2.22-3.87-4.42-7.75-6.61-11.6-0.575-1.01-0.575-1.01-1.16-2.04-2.59-4.59-2.59-4.59-2.59-5.71z" fill="#000100"/>
<path transform="translate(282 785)" d="m0 0c0.922-0.00961 1.84-0.0192 2.79-0.0291 1-0.00425 2.01-0.0085 3.04-0.0129 1.03-0.0057 2.06-0.0114 3.11-0.0173 2.18-0.00947 4.36-0.016 6.54-0.0198 3.33-0.00967 6.66-0.0407 9.99-0.0723 2.12-0.00653 4.24-0.0118 6.35-0.0156 0.994-0.0123 1.99-0.0247 3.01-0.0374 7.08 0.0227 11.4 1.09 16.7 6.05 1.05 1.14 1.05 1.14 2.12 2.31 3.17-0.802 3.17-0.802 5.38-3.44 5.87-5.73 12.6-4.93 20.4-4.93 2.04-0.00436 4.08-0.0407 6.12-0.0786 8.86-0.0263 14.2 0.761 21.3 6.09 0.53 0.531 1.06 1.06 1.61 1.61 0.543 0.521 1.09 1.04 1.64 1.58 4.21 5.93 4.98 11.9 4.88 19 6.57e-4 1.26 6.57e-4 1.26 0.00133 2.55-0.00207 2.75-0.0253 5.5-0.0489 8.25-0.0056 1.92-0.00987 3.83-0.0129 5.75-0.0114 5.02-0.0408 10-0.0741 15.1-0.0308 5.13-0.0444 10.3-0.0595 15.4-0.0321 10.1-0.0832 20.1-0.146 30.2-4.42 0.197-8.83 0.381-13.2 0.562-1.25 0.0561-2.51 0.112-3.8 0.17-1.81 0.0725-1.81 0.0725-3.65 0.146-1.67 0.0707-1.67 0.0707-3.36 0.143-2.93-0.0217-2.93-0.0217-6.93-1.02v-82c-3.96 0.66-7.92 1.32-12 2-0.33 26.4-0.66 52.8-1 80h-32c-0.33-24.4-0.66-48.8-1-74-3.63 0.66-7.26 1.32-11 2-0.33 23.8-0.66 47.5-1 72-29 1-29 1-32 0-0.0233-11.6-0.041-23.3-0.0518-34.9-0.0052-5.41-0.0122-10.8-0.0236-16.2-0.0109-5.23-0.0169-10.5-0.0194-15.7-0.00183-1.98-0.00542-3.97-0.0109-5.95-0.0605-23-0.0605-23 1.11-31.2 1.57-1.57 3.15-1.14 5.33-1.16z" fill="#000100"/>
<path transform="translate(1119 785)" d="m0 0c1.22-0.0128 2.44-0.0257 3.69-0.0389 1.34-0.00817 2.68-0.0156 4.03-0.0224 1.01-0.00611 1.01-0.00611 2.04-0.0124 3.57-0.0209 7.15-0.0352 10.7-0.0445 3.68-0.011 7.36-0.0454 11-0.0852 2.84-0.0262 5.68-0.0345 8.51-0.0381 2.01-0.0072 4.03-0.0336 6.04-0.0604 8.56 0.0202 13.1 0.888 19.6 6.51 0.643 0.669 1.29 1.34 1.95 2.03 0.656 0.672 1.31 1.34 1.99 2.04 3.69 4.13 3.96 6.58 3.99 12 0.00672 0.722 0.0134 1.44 0.0204 2.19 0.019 2.39 0.0229 4.78 0.0251 7.17 0.00643 1.66 0.0132 3.33 0.0202 4.99 0.012 3.49 0.0157 6.98 0.0145 10.5-2.03e-4 4.46 0.0271 8.92 0.0615 13.4 0.0223 3.44 0.0263 6.87 0.0252 10.3 0.00236 1.64 0.0112 3.29 0.0267 4.93 0.0197 2.31 0.0138 4.61 0.00179 6.91 0.00285 1.31 0.0057 2.62 0.00864 3.97-0.825 5.92-4.36 9.7-8.49 13.8-0.66 0.665-1.32 1.33-2 2.02-4.02 3.48-7.03 3.98-12.3 3.96-1.92-2.27e-4 -1.92-2.27e-4 -3.88-4.58e-4 -1.39-0.0102-2.79-0.0206-4.18-0.0313-1.43-0.00373-2.86-0.00658-4.29-0.00858-3.75-0.00762-7.51-0.0273-11.3-0.0494-3.83-0.0205-7.67-0.0296-11.5-0.0397-7.52-0.0214-15-0.0555-22.6-0.0977-0.0231-13.7-0.0409-27.3-0.0518-41-0.00523-6.35-0.0123-12.7-0.0236-19-0.0108-6.12-0.0168-12.2-0.0194-18.4-0.00185-2.34-0.00548-4.68-0.0109-7.02-0.00721-3.27-0.00826-6.53-0.0078-9.8-0.0036-0.978-0.00719-1.96-0.0109-2.96 0.00137-0.885 0.00275-1.77 0.00417-2.68-9.22e-4 -0.773-0.00184-1.55-0.00279-2.34 0.277-3.96 3.56-2.91 6.82-2.94zm31.1 25.2c-1.08 0.186-2.16 0.371-3.27 0.562-0.82 0.144-1.64 0.289-2.48 0.438-0.168 7.49-0.328 15-0.482 22.5-0.0534 2.55-0.109 5.1-0.166 7.65-0.0819 3.66-0.157 7.32-0.231 11-0.027 1.14-0.0541 2.29-0.0819 3.47-0.0201 1.06-0.0402 2.12-0.0609 3.21-0.02 0.935-0.04 1.87-0.0606 2.83-0.0246 2.52-0.0246 2.52 1.08 5.37 2.48-0.14 4.96-0.287 7.44-0.438 0.707-0.0393 1.41-0.0786 2.14-0.119 3.51 0.0804 3.51 0.0804 6.42-1.44 0.0937-1.75 0.117-3.5 0.114-5.25-1.13e-4 -1.68-1.13e-4 -1.68-2.29e-4 -3.4-0.00516-1.22-0.0103-2.44-0.0156-3.7-0.00212-1.86-0.00212-1.86-0.00429-3.76-0.00466-3.31-0.0137-6.61-0.0247-9.92-0.0102-3.37-0.0148-6.74-0.0198-10.1-0.0111-6.62-0.0278-13.2-0.0488-19.9-3.6 0-6.71 0.385-10.2 1z" fill="#000100"/>
<path transform="translate(1e3 784)" d="m0 0c0.804-1.66e-4 1.61-3.32e-4 2.44-5.04e-4 0.915-0.00938 1.83-0.0188 2.77-0.0284 0.987 0.0112 1.97 0.0225 2.99 0.034 1.02-0.00146 2.04-0.00291 3.09-0.00441 2.16 0.00166 4.32 0.0132 6.48 0.034 3.29 0.0288 6.58 0.0206 9.87 0.00757 2.1 0.00624 4.2 0.0146 6.31 0.0254 0.977-0.00294 1.95-0.00587 2.96-0.0089 8.94 0.122 15.6 2.24 22.2 8.41 5.99 6.91 6.94 15.2 6.78 24-0.00961 0.791-0.0192 1.58-0.0291 2.4-0.0329 2.6-0.0732 5.21-0.114 7.81-0.0243 1.81-0.0482 3.62-0.0715 5.43-0.0627 4.75-0.132 9.51-0.202 14.3-0.0708 4.85-0.136 9.71-0.201 14.6-0.129 9.52-0.264 19-0.404 28.5-3.54 1.18-6.73 1.13-10.4 1.11-0.751 1.46e-4 -1.5 2.92e-4 -2.28 4.43e-4 -2.48-6.97e-4 -4.97-0.00848-7.45-0.0163-1.72-0.00187-3.44-0.00329-5.17-0.00429-4.53-0.00382-9.06-0.0136-13.6-0.0247-4.63-0.0102-9.25-0.0148-13.9-0.0198-9.07-0.0107-18.1-0.0278-27.2-0.0488-0.325-16-0.621-32.1-0.884-48.1-0.0686-4.17-0.143-8.33-0.228-12.5-0.0767-3.78-0.136-7.57-0.175-11.4-0.0247-1.91-0.0697-3.82-0.115-5.74-0.0542-7.97 1.07-13.3 6.22-19.5 0.576-0.521 1.15-1.04 1.75-1.58 1.88-1.73 3.38-3.16 4.76-5.32 1.68-1.93 1.68-1.93 3.77-2.43zm16.9 26.5v56c13.7 0.74 13.7 0.74 17-3 0.293-2.39 0.293-2.39 0.227-5.18-1.51e-4 -1.08-3.02e-4 -2.16-4.58e-4 -3.28-0.0103-1.17-0.0206-2.34-0.0313-3.55-0.00283-1.2-0.00566-2.39-0.00858-3.62-0.0112-3.83-0.0363-7.66-0.0617-11.5-0.01-2.59-0.0192-5.18-0.0273-7.78-0.0221-6.37-0.0556-12.7-0.0977-19.1-6.15-1.54-6.15-1.54-17 1z" fill="#000100"/>
<path transform="translate(478 785)" d="m0 0c2.88 0.0291 5.75 0.0206 8.63 0.00757 1.85 0.00624 3.69 0.0146 5.54 0.0254 1.28-0.0044 1.28-0.0044 2.58-0.0089 6.57 0.103 11.3 1.29 16.5 5.56 0.736 0.764 1.47 1.53 2.23 2.32 0.749 0.762 1.5 1.52 2.27 2.31 4.08 4.79 4.2 8.8 4.15 15 2.92e-4 0.878 5.84e-4 1.76 8.85e-4 2.66-0.00139 2.9-0.0169 5.8-0.0326 8.7-0.00373 2.01-0.00658 4.02-0.00858 6.04-0.00763 5.29-0.0273 10.6-0.0494 15.9-0.0205 5.4-0.0296 10.8-0.0397 16.2-0.0214 10.6-0.0566 21.2-0.0977 31.8h-31v-37c-8.42 0.99-8.42 0.99-17 2v34c-4.28 0.713-7.77 1.13-12 1.13-1.1 0.00129-2.21 0.00258-3.35 0.00391-1.14-0.00387-2.28-0.00773-3.45-0.0117-1.74 0.0058-1.74 0.0058-3.51 0.0117-1.1-0.00129-2.2-0.00258-3.33-0.00391-1-0.00113-2.01-0.00226-3.04-0.00342-2.31-0.129-2.31-0.129-3.31-1.13-0.141-2.54-0.218-5.05-0.253-7.59-0.0221-1.19-0.0221-1.19-0.0446-2.41-0.0471-2.65-0.0864-5.29-0.124-7.94-0.0208-1.36-0.0208-1.36-0.042-2.74-0.0734-4.79-0.141-9.58-0.204-14.4-0.0657-4.94-0.15-9.87-0.24-14.8-0.0654-3.8-0.117-7.6-0.164-11.4-0.0251-1.82-0.0555-3.64-0.0912-5.45-0.0488-2.56-0.0777-5.11-0.102-7.67-0.0186-0.742-0.0371-1.48-0.0563-2.25-0.0299-7.45 1.86-14.5 6.88-20.2 0.599-0.708 1.2-1.42 1.82-2.14 9.31-7.26 19.7-6.63 30.9-6.51zm-0.00171 25.4c-1.46 0.261-1.46 0.261-2.95 0.527-2.31 0.302-2.31 0.302-3.36 1.54-0.0863 1.34-0.107 2.69-0.0977 4.04 0.00322 0.809 0.00645 1.62 0.00977 2.45 0.00838 0.85 0.0168 1.7 0.0254 2.58 0.00451 0.854 0.00902 1.71 0.0137 2.59 0.0118 2.12 0.0298 4.23 0.0488 6.35 1.15 0.0412 2.31 0.0825 3.5 0.125 0.65 0.0232 1.3 0.0464 1.97 0.0703 3.58-0.276 7.05-1.33 10.5-2.2v-19c-3.44 0-6.32 0.322-9.69 0.938z" fill="#000100"/>
<path transform="translate(684,785)" d="m0 0c4.25-0.029 8.5-0.0468 12.8-0.0625 1.21-0.00838 2.41-0.0168 3.66-0.0254 1.74-0.00483 1.74-0.00483 3.52-0.00977 1.07-0.00524 2.14-0.0105 3.24-0.0159 2.84 0.114 2.84 0.114 6.84 1.11v32l2 1c0.275-0.72 0.549-1.44 0.833-2.18 1.14-2.75 2.43-5.3 3.85-7.91 0.517-0.949 1.03-1.9 1.57-2.88 0.538-0.98 1.08-1.96 1.63-2.97 0.53-0.976 1.06-1.95 1.61-2.96 0.519-0.951 1.04-1.9 1.57-2.88 0.469-0.858 0.938-1.72 1.42-2.6 0.503-0.865 1.01-1.73 1.52-2.62 0.573-1.09 1.15-2.17 1.74-3.29 2.26-2.71 2.26-2.71 5.56-3.39 1.28 0.0314 2.56 0.0628 3.87 0.0952 1.02 0.0127 1.02 0.0127 2.07 0.0257 2.17 0.0335 4.34 0.109 6.51 0.185 1.48 0.0301 2.95 0.0575 4.43 0.082 3.61 0.066 7.22 0.169 10.8 0.293-0.601 4.76-2.68 8.59-4.93 12.8-0.586 1.1-0.586 1.1-1.18 2.23-1.25 2.34-2.5 4.68-3.76 7.02-0.838 1.57-1.68 3.15-2.51 4.72-6.59 12.4-6.59 12.4-9.61 17.3 0.594-0.133 1.19-0.266 1.8-0.402 6.38-1.36 12.7-2.13 19.2-2.6 1.32 7.08 1.41 14.2 1.62 21.4 0.0337 1.09 0.0337 1.09 0.0681 2.21 0.811 27.2 0.811 27.2-0.693 39.4-1 1-1 1-3.78 1.11-1.21-0.00524-2.42-0.0105-3.67-0.0159-1.31-0.00322-2.61-0.00645-3.96-0.00977-1.39-0.00836-2.78-0.0168-4.17-0.0254-1.39-0.00501-2.79-0.00958-4.18-0.0137-3.42-0.0118-6.84-0.0283-10.3-0.0488-1.18-3.54-1.11-6.34-1.1-10.1 0.00141-0.684 0.00283-1.37 0.00429-2.07 0.00559-2.18 0.0181-4.36 0.0309-6.54 0.00502-1.48 0.00958-2.96 0.0137-4.44 0.011-3.62 0.0283-7.25 0.0488-10.9-0.941 0.217-1.88 0.433-2.85 0.656-1.25 0.278-2.49 0.557-3.77 0.844-1.23 0.278-2.46 0.557-3.73 0.844-3.65 0.656-3.65 0.656-9.65 0.656v30c-9.02 1.13-9.02 1.13-13.3 1.13-1.37 0.00193-1.37 0.00193-2.77 0.00391-0.926-0.00387-1.85-0.00773-2.8-0.0117-0.949 0.00387-1.9 0.00773-2.88 0.0117-0.905-0.00129-1.81-0.00258-2.74-0.00391-0.818-0.00113-1.64-0.00226-2.48-0.00342-2.03-0.129-2.03-0.129-4.03-1.13-1.8-10.9-1.16-22.5-1.17-33.5-0.00322-1.85-0.00659-3.69-0.0101-5.54-0.00594-3.84-0.00784-7.68-0.00725-11.5 1.02e-4 -4.91-0.0136-9.82-0.0308-14.7-0.0111-3.8-0.0131-7.6-0.0126-11.4-0.00118-1.81-0.00557-3.62-0.0133-5.43-0.00983-2.53-0.00691-5.06-8.95e-4 -7.59-0.00562-0.738-0.0112-1.48-0.017-2.24 0.0286-4.75 0.787-8.59 2.26-13z" fill="#000100"/>
<path transform="translate(591 785)" d="m0 0c1.2-0.00855 1.2-0.00855 2.42-0.0173 1.68-0.00942 3.37-0.016 5.05-0.0198 2.56-0.00971 5.12-0.0408 7.68-0.0723 1.64-0.00653 3.28-0.0118 4.92-0.0156 0.758-0.0123 1.52-0.0247 2.3-0.0374 9.14 0.0379 14.9 4.07 21.3 10.4 5 5.31 5 5.31 5 8-14.2 3.88-28.6 6.43-43 9-0.33 3.3-0.66 6.6-1 10 1.23-0.217 2.46-0.435 3.73-0.658 4.56-0.802 9.12-1.6 13.7-2.39 1.98-0.344 3.95-0.69 5.92-1.04 2.83-0.5 5.67-0.992 8.5-1.48 0.887-0.158 1.77-0.317 2.69-0.48 0.821-0.14 1.64-0.28 2.49-0.425 0.724-0.127 1.45-0.253 2.19-0.384 1.8-0.145 1.8-0.145 3.8 0.855v74c-4.61 0.768-8.41 1.12-13 1.11-0.674 1.46e-4 -1.35 2.92e-4 -2.04 4.43e-4 -2.21-6.92e-4 -4.41-0.00845-6.62-0.0163-1.54-0.00187-3.08-0.00329-4.62-0.00429-4.03-0.0038-8.07-0.0136-12.1-0.0247-4.12-0.0103-8.25-0.0148-12.4-0.0198-8.08-0.0107-16.2-0.0283-24.2-0.0488v-18c4.71-1.57 9.1-2.66 14-3.47 0.741-0.128 1.48-0.256 2.25-0.388 2.35-0.405 4.7-0.804 7.05-1.2 2.36-0.402 4.73-0.805 7.09-1.21 1.47-0.253 2.93-0.502 4.4-0.748 3.74-0.62 3.74-0.62 7.26-1.98v-17c-2.53 0.433-5.06 0.866-7.66 1.31-2.46 0.418-4.92 0.835-7.39 1.25-1.71 0.289-3.41 0.58-5.12 0.873-2.46 0.422-4.91 0.837-7.37 1.25-0.756 0.131-1.51 0.262-2.29 0.398-4.11 0.685-7.99 1.05-12.2 0.915-0.807-9.22-1.21-18.4-1.03-27.6 0.0237-1.73 0.0288-3.47 0.0225-5.2-0.0094-3.04 0.0285-6.09 0.0728-9.13-0.0111-0.959-0.0222-1.92-0.0337-2.91 0.185-7.55 2.7-11.8 7.97-17.2 6.4-5.68 12-6.16 20.3-6.2z" fill="#000100"/>
<path transform="translate(899 785)" d="m0 0c0.844-0.00287 1.69-0.00574 2.56-0.0087 1.77-0.00203 3.55 0.00343 5.32 0.016 2.71 0.0161 5.41 9.76e-5 8.12-0.019 1.73 0.00198 3.46 0.00582 5.19 0.0117 1.21-0.00911 1.21-0.00911 2.44-0.0184 7.16 0.0893 10.9 2.68 16 7.67 6.46 6.7 7.72 11.9 7.58 21.1-0.203 2.67-0.203 2.67-1.2 5.67-4.06 0.841-8.12 1.67-12.2 2.5-1.15 0.238-2.3 0.477-3.49 0.723-1.11 0.226-2.22 0.451-3.37 0.684-1.02 0.209-2.04 0.419-3.09 0.635-2.68 0.43-5.15 0.546-7.86 0.459-1.38-2.76-1.1-5.05-1.06-8.12 0.00902-1.1 0.018-2.19 0.0273-3.32 0.0116-0.843 0.0232-1.69 0.0352-2.55-3.63 0.33-7.26 0.66-11 1 0.33 18.1 0.66 36.3 1 55h9c0.124-1.11 0.247-2.23 0.375-3.38 0.625-3.62 0.625-3.62 2.62-5.62 2.47-0.686 2.47-0.686 5.56-1.29 1.11-0.219 2.22-0.438 3.36-0.664 1.16-0.222 2.32-0.443 3.52-0.672 1.16-0.229 2.32-0.459 3.51-0.695 8.6-1.68 8.6-1.68 12.1-1.68 3.21 11.2 3.49 26.6 1 38-2.92 1.46-5.48 1.12-8.74 1.11-1.04 2.19e-4 -1.04 2.19e-4 -2.1 4.43e-4 -2.29-6.98e-4 -4.59-0.00848-6.88-0.0163-1.59-0.00186-3.18-0.00329-4.77-0.00429-4.19-0.00382-8.37-0.0136-12.6-0.0247-4.27-0.0102-8.54-0.0148-12.8-0.0198-8.38-0.0107-16.8-0.0278-25.1-0.0488-1.25-3.74-1.16-7.23-1.18-11.1-0.00657-0.828-0.0131-1.66-0.0199-2.51-0.0197-2.74-0.0314-5.48-0.0414-8.23-0.00408-0.937-0.00815-1.87-0.0124-2.84-0.0209-4.96-0.0352-9.92-0.0445-14.9-0.0111-5.12-0.0455-10.2-0.0852-15.4-0.0262-3.94-0.0345-7.88-0.0381-11.8-0.00486-1.89-0.0165-3.77-0.035-5.66-0.0244-2.64-0.0234-5.29-0.0165-7.93-0.0192-1.16-0.0192-1.16-0.0388-2.35 0.0612-6.43 2.06-10.6 6.4-15.4 0.949-0.812 0.949-0.812 1.92-1.64 0.625-0.552 1.25-1.1 1.89-1.67 6.05-4.16 11.2-5.03 18.3-4.98z" fill="#000100"/>
<path transform="translate(1236,786)" d="m0 0c8.72-0.0231 17.4-0.0409 26.2-0.0518 4.05-0.00523 8.1-0.0123 12.1-0.0236 3.9-0.0108 7.81-0.0168 11.7-0.0194 1.49-0.00185 2.98-0.00547 4.48-0.0109 2.08-0.00721 4.17-0.00826 6.25-0.0078 1.19-0.00222 2.38-0.00444 3.6-0.00673 2.66 0.12 2.66 0.12 3.66 1.12 0.0992 1.62 0.131 3.25 0.133 4.88 0.00129 0.985 0.00258 1.97 0.00391 2.98-0.00387 1.04-0.00773 2.07-0.0117 3.14 0.00387 1.04 0.00773 2.07 0.0117 3.14-0.00129 0.985-0.00258 1.97-0.00391 2.98-0.00113 0.91-0.00226 1.82-0.00342 2.76-0.129 2.12-0.129 2.12-1.13 3.12-2.67 0.0886-5.31 0.115-7.97 0.0977-0.798-0.00141-1.6-0.00283-2.42-0.00429-2.56-0.00562-5.12-0.0182-7.67-0.0309-1.73-0.00501-3.46-0.00958-5.19-0.0137-4.25-0.011-8.5-0.0283-12.7-0.0488v15c1.18-0.217 2.36-0.433 3.58-0.656 1.56-0.281 3.11-0.563 4.67-0.844 0.777-0.143 1.55-0.286 2.36-0.434 1.13-0.203 1.13-0.203 2.29-0.41 0.691-0.126 1.38-0.251 2.09-0.381 2.01-0.275 2.01-0.275 6.01-0.275 1.23 2.45 1.11 4.05 1.1 6.79-0.00322 0.941-0.00645 1.88-0.00977 2.85-0.0126 1.48-0.0126 1.48-0.0254 2.98-0.00451 0.993-0.00902 1.99-0.0137 3.01-0.0118 2.46-0.0283 4.91-0.0488 7.37-6.86 3.15-13.6 4.52-21 6-0.33 4.95-0.66 9.9-1 15 1.63-0.00786 1.63-0.00786 3.29-0.0159 4.01-0.018 8.02-0.0296 12-0.0391 1.74-0.00504 3.48-0.0119 5.22-0.0205 2.49-0.0121 4.99-0.0178 7.48-0.0222 0.782-0.00516 1.56-0.0103 2.37-0.0156 1.87-1.96e-4 3.74 0.0513 5.6 0.113 1 1 1 1 1.11 3.22-0.00786 1.44-0.00786 1.44-0.0159 2.9-0.00483 1.55-0.00483 1.55-0.00977 3.13-0.0126 1.63-0.0126 1.63-0.0254 3.3-0.00451 1.09-0.00902 2.18-0.0137 3.31-0.0118 2.71-0.0283 5.42-0.0488 8.13-3.3 1.1-5.73 1.13-9.2 1.13-1.28 0.00315-2.56 0.0063-3.87 0.00955-1.4-0.00179-2.79-0.00384-4.19-0.00613-1.43 6.73e-4 -2.86 0.00164-4.28 0.0029-2.99 0.00147-5.98-6.68e-4 -8.97-0.00534-3.84-0.00571-7.68-0.00241-11.5 0.00357-2.95 0.00361-5.9 0.00247-8.84-1.28e-4 -1.42-6.69e-4 -2.83 1.58e-4 -4.25 0.00248-1.98 0.00253-3.95-2e-3 -5.93-0.0069-1.69-0.00119-1.69-0.00119-3.41-0.00241-2.53-0.127-2.53-0.127-3.53-1.13-0.256-2.43-0.43-4.82-0.555-7.25-0.0631-1.23-0.0631-1.23-0.127-2.48-0.606-13.7-0.467-27.5-0.448-41.2 0.00573-4.16 0.00238-8.32-0.00357-12.5-0.00364-3.25-0.00245-6.5 1.28e-4 -9.75 6.59e-4 -1.53-1.22e-4 -3.07-0.00248-4.6-0.0106-8.78 0.222-17.5 1.14-26.2z" fill="#000100"/>
<path transform="translate(874,247)" d="m0 0h4c7.93 10.2 9.86 20.4 9 33-1.47 10.2-6.37 18.2-14.2 24.9-8.57 6.22-19.2 9.02-29.8 8.12-9.85-1.78-17.3-5.63-24-13 1.59-4.15 4.64-6.68 7.88-9.56 1.17-1.06 2.35-2.12 3.52-3.18 0.896-0.806 0.896-0.806 1.81-1.63 1.74-1.58 3.47-3.18 5.18-4.79 0.534-0.499 1.07-0.998 1.62-1.51 1.48-1.38 2.96-2.77 4.44-4.15 2.17-1.85 3.95-3.09 6.56-4.18v-2c1.22-1.23 1.22-1.23 3.06-2.75 4.42-3.75 8.65-7.67 12.9-11.6 0.675-0.631 1.35-1.26 2.05-1.91 3.04-2.82 3.04-2.82 6.02-5.71z" fill="#000100"/>
<path transform="translate(703,247)" d="m0 0c3.4 0.577 4.93 1.61 7.25 4.12 4.75 4.96 9.9 9.39 15.2 13.7 0.825 0.722 1.65 1.44 2.5 2.19v2c0.577 0.255 1.15 0.51 1.75 0.773 2.48 1.35 4.22 2.89 6.25 4.85 0.741 0.706 1.48 1.41 2.24 2.14 1.15 1.11 1.15 1.11 2.31 2.23 1.52 1.46 3.04 2.92 4.57 4.38 0.671 0.647 1.34 1.29 2.03 1.96 1.94 1.84 1.94 1.84 4.84 3.66v2c0.577 0.248 1.15 0.495 1.75 0.75 2.66 1.48 4.39 2.83 6.25 5.25 0.229 2.9-0.414 4.31-2.29 6.51-7.55 7.1-17.6 9.9-27.8 9.77-11.4-1.09-21.4-5.76-28.7-14.5-1.1-1.56-2.17-3.14-3.19-4.75-0.436-0.681-0.871-1.36-1.32-2.06-4.71-9.22-4.1-22.4-1.95-32.3 1.86-4.98 4.63-8.79 8.27-12.6z" fill="#000100"/>
<path transform="translate(757 424)" d="m0 0c0.707 0.0036 1.41 0.00719 2.14 0.0109 1.11-2.19e-4 1.11-2.19e-4 2.25-4.43e-4 2.46 6.99e-4 4.92 0.00849 7.39 0.0163 1.7 0.00186 3.41 0.00329 5.11 0.00429 4.49 0.00383 8.98 0.0137 13.5 0.0247 4.58 0.0102 9.16 0.0148 13.7 0.0198 8.99 0.0107 18 0.0278 27 0.0488 0.0329 1.92 0.0564 3.84 0.0759 5.75 0.0211 1.6 0.0211 1.6 0.0427 3.24-0.325 8.25-5.64 16.1-11.5 21.6-8.92 7.08-20.3 10.6-31.6 9.38-7.2-1.32-13.1-3.63-19-8-0.824-0.601-1.65-1.2-2.5-1.82-2.69-2.34-4.32-4.59-6.19-7.62-0.581-0.927-1.16-1.85-1.76-2.81-2.55-4.53-3.81-8.31-4.24-13.5-0.0864-0.964-0.173-1.93-0.262-2.92-0.0168-0.768-0.0335-1.54-0.0508-2.33 1.67-1.67 3.71-1.12 5.95-1.12z" fill="#000100"/>
<path transform="translate(478,951)" d="m0 0c2.36 8.85 4.13 17.7 5.69 26.8 0.225 1.28 0.45 2.56 0.682 3.88 0.547 3.12 1.09 6.24 1.63 9.37 2.15-3.22 3-5.9 4.09-9.61 0.192-0.645 0.384-1.29 0.582-1.95 0.613-2.06 1.22-4.12 1.82-6.19 0.407-1.37 0.815-2.74 1.22-4.12 1.79-6.04 3.55-12.1 5.28-18.1h8c4.16 13.2 8.07 26.4 11 40h2c0.113-1.19 0.227-2.38 0.344-3.6 0.739-6.64 1.97-13.2 3.16-19.8 0.226-1.27 0.451-2.54 0.684-3.85 1.69-9.38 1.69-9.38 2.82-12.8h8c-0.627 6.5-1.67 12.8-3.03 19.1-0.294 1.4-0.294 1.4-0.594 2.82-0.621 2.95-1.25 5.9-1.87 8.84-0.421 2-0.842 3.99-1.26 5.99-0.769 3.65-1.54 7.29-2.31 10.9-0.155 0.728-0.309 1.46-0.469 2.21-0.45 2.03-0.942 4.04-1.46 6.05-3.47 0.495-3.47 0.495-7 1-2.4-3.67-3.79-7.08-4.97-11.3-0.342-1.21-0.684-2.41-1.04-3.66-0.347-1.25-0.695-2.51-1.05-3.8-0.351-1.24-0.703-2.48-1.06-3.75-1.82-6.47-3.5-12.9-4.87-19.5h-2c-0.12 0.999-0.24 2-0.364 3.03-0.569 3.96-1.63 7.73-2.82 11.6-0.213 0.693-0.427 1.39-0.647 2.1-0.449 1.45-0.902 2.91-1.36 4.36-0.693 2.22-1.37 4.44-2.05 6.67-0.44 1.42-0.882 2.83-1.32 4.25-0.2 0.663-0.4 1.33-0.606 2.01-2.04 6.42-2.04 6.42-4.84 8.04-3.19-0.312-3.19-0.312-6-1-2.93-10.4-5.28-20.7-7.29-31.3-0.465-2.43-0.939-4.86-1.41-7.29-0.301-1.56-0.602-3.12-0.902-4.68-0.141-0.72-0.281-1.44-0.426-2.18-0.621-3.28-0.965-6.2-0.965-9.56 2.46-1.23 4.28-1.07 7-1z" fill="#000100"/>
<path transform="translate(1104,950)" d="m0 0c1.25 19.1 1 37.9 0 57h-6c-0.0251-1.02-0.0501-2.05-0.0759-3.11-0.0939-3.79-0.194-7.58-0.296-11.4-0.0434-1.64-0.0851-3.28-0.125-4.93-0.0576-2.36-0.121-4.71-0.186-7.07-0.0167-0.739-0.0334-1.48-0.0506-2.24 0.199-3.44 0.199-3.44-1.27-6.3-0.461 1.04-0.461 1.04-0.93 2.09-1.41 3.16-2.83 6.32-4.26 9.47-0.483 1.09-0.966 2.17-1.46 3.29-5.14 11.3-5.14 11.3-9.35 16.1h-4c-4.62-10.2-9.24-20.5-14-31-0.33 11.5-0.66 23.1-1 35h-7v-56c7 0 7 0 8.73 1.51 1.71 3.36 3.17 6.78 4.55 10.3 0.619 1.53 1.24 3.06 1.86 4.6 0.965 2.41 1.93 4.82 2.89 7.23 0.933 2.33 1.87 4.66 2.82 6.99 0.286 0.726 0.573 1.45 0.868 2.2 1.31 3.79 1.31 3.79 4.28 6.19 0.365-1.17 0.73-2.33 1.11-3.53 2.15-6.42 4.71-12.7 7.35-18.9 0.579-1.38 1.15-2.77 1.71-4.16 0.817-2.03 1.66-4.04 2.52-6.05 0.494-1.19 0.988-2.39 1.5-3.62 1.83-2.72 1.83-2.72 4.91-3.62 1.64-0.0581 3.28-0.104 4.92-0.104z" fill="#000100"/>
<path transform="translate(248 950)" d="m0 0c1.12 0.00737 1.12 0.00737 2.26 0.0149 6.81 0.145 12.5 0.847 17.8 5.36 4.43 8.33 3.87 17.8 3.56 26.9-0.0193 0.658-0.0387 1.32-0.0586 1.99-0.517 15.8-0.517 15.8-6.38 21.3-5.36 3.53-11.2 2.91-17.4 2.94-0.981 0.0206-1.96 0.0412-2.97 0.0625-5.46 0.0295-9.48-0.139-14.2-3.31-6.16-7.66-5.21-15.8-5.25-25.2-0.0206-1.29-0.0412-2.57-0.0625-3.89-0.0334-8.13 0.19-15.5 5.06-22.3 5.29-3.67 11.4-3.92 17.6-3.88zm-12.4 10.3c-3.94 5.91-3.09 13.7-3.12 20.6-0.00467 0.716-0.00935 1.43-0.0142 2.17 0.00621 2.07 0.0616 4.13 0.139 6.2 0.0438 1.22 0.0877 2.45 0.133 3.71 0.928 3.52 2.07 5.23 5.03 7.39 3.39 1.67 6.69 1.55 10.4 1.4 0.742 0.00258 1.48 0.00516 2.25 0.00781 4.46-0.0795 7.65-0.52 11.2-3.51 1.98-5.38 1.22-11.7 1.24-17.3 0.00973-2.17 0.0408-4.33 0.0723-6.5 0.00653-1.38 0.0118-2.76 0.0156-4.14 0.00935-1.25 0.0187-2.5 0.0283-3.79-0.379-3.44-0.952-4.8-3.36-7.24-3.57-1.53-7.61-1.17-11.4-1.19-1.3-0.0142-2.6-0.0284-3.93-0.043-3.43 0.218-5.63 0.593-8.63 2.23z" fill="#000100"/>
<path transform="translate(1318 950)" d="m0 0c4.67 2.29 6.5 5.69 9.18 10 0.524 0.815 1.05 1.63 1.59 2.47 1.51 2.35 3 4.72 4.48 7.09 1.27 2.02 2.54 4.04 3.81 6.06 0.46 0.754 0.92 1.51 1.39 2.29 2.73 4.03 5.81 7.81 8.79 11.7 0.33-12.5 0.66-25.1 1-38 3.46-0.495 3.46-0.495 7-1 1.08 7.67 1.15 15.3 1.13 23-0.00532 2.16-5.09e-5 4.31 0.00635 6.47 0.00381 8.89-0.368 17.7-1.14 26.5-3 1-3 1-5.49 0.328-2.9-1.53-3.96-2.84-5.74-5.57-0.595-0.896-1.19-1.79-1.8-2.71-0.651-1-1.3-2.01-1.97-3.04-0.741-1.11-1.48-2.22-2.23-3.33-2.39-3.57-4.77-7.15-7.15-10.7-1.61-2.43-3.22-4.86-4.84-7.29-0.704-1.06-1.41-2.12-2.13-3.22-1.44-2.28-1.44-2.28-2.65-3.43-0.33 12.9-0.66 25.7-1 39h-7v-56c2-1 2-1 4.75-0.59z" fill="#000100"/>
<path transform="translate(676 950)" d="m0 0c1.06-0.0206 2.11-0.0412 3.2-0.0625 6.37-0.0317 11.3 0.417 17 3.31 4.19 7.43 5.29 15.7 3.12 24-1.12 3-1.12 3-3.12 4 0.468 3.09 1.17 5.36 2.56 8.19 2.52 5.6 2.09 12 0.438 17.8h-7c-0.0258-0.869-0.0516-1.74-0.0781-2.63-0.229-9.02-0.229-9.02-4.92-16.4-6.73-3.55-13.5-3.61-21-4v23h-7v-56c5.7-1.14 11-1.22 16.8-1.25zm-9.81 8.25c-0.0289 3.15-0.0468 6.29-0.0625 9.44-0.00838 0.898-0.0168 1.8-0.0254 2.72-0.00322 0.854-0.00645 1.71-0.00977 2.59-0.00524 0.791-0.0105 1.58-0.0159 2.4-0.0914 1.87-0.0914 1.87 1.11 2.86 2.74 0.181 5.44 0.278 8.19 0.312 1.13 0.0435 1.13 0.0435 2.29 0.0879 5.33 0.0601 8.27-0.903 12.5-4.4 2.2-2.68 2.07-4.74 1.75-8.06-0.409-3.13-0.898-4.16-2.75-6.94-2.85-1.05-5.53-1.12-8.55-1.1-0.844 0.00322-1.69 0.00645-2.56 0.00977-0.873 0.00838-1.75 0.0168-2.64 0.0254-0.888 0.00451-1.78 0.00902-2.69 0.0137-2.19 0.0118-4.37 0.0282-6.56 0.0488z" fill="#000100"/>
<path transform="translate(1e3 953)" d="m0 0c4.83 5.08 5.18 8.73 5.24 15.5 0.00807 0.849 0.0161 1.7 0.0245 2.57 0.0138 1.8 0.0246 3.6 0.0324 5.4 0.0172 2.74 0.0611 5.48 0.105 8.22 0.0101 1.75 0.0186 3.5 0.0254 5.25 0.0175 0.816 0.035 1.63 0.0531 2.47-0.0201 5.32-0.912 8.37-4.48 12.6-5.79 3.49-11.3 3.49-17.9 3.44-1.43 0.03-1.43 0.03-2.88 0.0605-6.17-0.00425-11.1-0.833-16.2-4.5-5.26-7.13-4.18-18.1-4.19-26.6-0.0122-0.881-0.0245-1.76-0.0371-2.67-0.0152-6.87 0.459-13.5 3.79-19.6 8.74-7.62 26.7-7.68 36.4-2.12zm-31 8c-0.95 2.59-0.95 2.59-0.875 5.62-0.0348 1.15-0.0696 2.3-0.105 3.48-0.00645 1.28-0.0129 2.57-0.0195 3.89-0.0361 1.46-0.0739 2.93-0.113 4.39-0.0275 1.49-0.0523 2.99-0.0742 4.48-0.0134 0.701-0.0267 1.4-0.0405 2.12-0.00554 4.66 0.457 8.67 2.23 13 4.01 3.66 8.35 3.49 13.5 3.44 0.746 0.02 1.49 0.04 2.26 0.0605 3.84-0.0034 5.84-0.259 9.21-2.28 4.81-5.26 3.25-13.5 3.28-20.2 0.0206-1.28 0.0412-2.55 0.0625-3.87 0.00516-1.23 0.0103-2.46 0.0156-3.72 0.00935-1.12 0.0187-2.24 0.0283-3.4-0.4-3.45-1.3-5.31-3.36-8.07-4.01-2.33-7.87-2.3-12.4-2.31-1.28-0.0168-2.55-0.0335-3.87-0.0508-4.01 0.395-6.4 1.03-9.69 3.36z" fill="#000100"/>
<path transform="translate(178,953)" d="m0 0c2.65 2.09 3.78 3.39 4.94 6.56 0.0625 2.44 0.0625 2.44-1.12 4.31-1.81 1.12-1.81 1.12-3.75 1.06-2.61-1.18-4.12-2.86-6.06-4.94-5.31-2.65-13.3-1.54-18.8 0.188-2.39 1.64-2.39 1.64-3.31 4.19 0.0817 3.43 0.906 4.97 3.06 7.62 4.79 2.52 9.76 2.38 15 2.48 4.7 0.183 8.07 0.846 12 3.52 4.34 6.4 3.72 13.6 3 21-0.913 3.25-1.7 4.39-4 7-5.51 2.57-11.1 2.33-17.1 2.31-0.98 0.0161-1.96 0.0322-2.97 0.0488-9.05 0.00614-9.05 0.00614-13-3.36-2.68-4.02-2.16-6.24-2-11 3.61 0.309 4.74 0.695 7.14 3.52 3.88 3.36 6.54 3.13 11.5 2.91 0.763-0.0058 1.53-0.0116 2.31-0.0176 3.83-0.0841 5.81-0.254 9.06-2.42 1.44-3.53 1.33-7.25 1-11-1.3-2.4-1.3-2.4-4-4-4.37-0.655-8.79-0.458-13.2-0.4-7.82-0.0941-7.82-0.0941-11.4-2.97-4.49-4.89-4.82-9.83-4.68-16.2 0.449-4.25 2.01-7.11 4.94-10.2 8.97-4.85 22.5-5.61 31.3-0.25z" fill="#000100"/>
<path transform="translate(1150,950)" d="m0 0c4.99-0.0619 9.98-0.124 15.1-0.188 1.56-0.0273 3.13-0.0546 4.74-0.0828 1.24-0.00749 2.49-0.015 3.77-0.0227 1.27-0.0157 2.53-0.0314 3.84-0.0476 3.88 0.374 6.23 1.3 9.53 3.34 4.82 6 5.55 11.5 5 19-1.03 5.51-2.58 8.5-7 12-3.47 0.93-6.72 1.12-10.3 1.1-0.881-0.0025-1.76-5e-3 -2.67-0.00757-1.1-0.0091-2.21-0.0182-3.34-0.0276-5.29-0.0309-5.29-0.0309-10.7-0.0625v22c-2.64 0.33-5.28 0.66-8 1v-58zm8 8c-0.0289 3.15-0.0468 6.29-0.0625 9.44-0.00838 0.898-0.0168 1.8-0.0254 2.72-0.00322 0.854-0.00645 1.71-0.00977 2.59-0.00524 0.791-0.0105 1.58-0.0159 2.4-0.0914 1.87-0.0914 1.87 1.11 2.86 1.45 0.0989 2.91 0.131 4.37 0.133 0.886 0.00129 1.77 0.00258 2.68 0.00391 0.932-0.00387 1.86-0.00773 2.82-0.0117 0.924 0.00387 1.85 0.00773 2.8 0.0117 0.888-0.00129 1.78-0.00258 2.69-0.00391 1.22-0.00169 1.22-0.00169 2.47-0.00342 2.34-0.0468 2.34-0.0468 5.16-1.13 2.43-5.23 3.03-10.9 1.19-16.4-1.2-1.88-1.2-1.88-4.19-2.56-1.63-0.0814-3.26-0.108-4.89-0.0977-0.938 0.00322-1.88 0.00645-2.84 0.00977-0.976 0.00838-1.95 0.0168-2.96 0.0254-0.988 0.00451-1.98 0.00902-2.99 0.0137-2.44 0.0118-4.88 0.0282-7.32 0.0488z" fill="#000100"/>
<path transform="translate(598,952)" d="m0 0c1.45 2.6 1.45 2.6 2.61 5.91 0.44 1.23 0.88 2.45 1.33 3.71 0.456 1.33 0.911 2.66 1.37 4 0.476 1.35 0.954 2.71 1.43 4.06 1.21 3.43 2.39 6.88 3.57 10.3 1.06 3.09 2.14 6.17 3.21 9.25 0.743 2.16 1.48 4.33 2.22 6.49 0.347 1.01 0.694 2.02 1.05 3.06 0.308 0.923 0.615 1.85 0.932 2.8 0.27 0.804 0.541 1.61 0.819 2.44 0.446 1.95 0.446 1.95-0.554 3.95-2.31-0.33-4.62-0.66-7-1-0.671-1.79-1.34-3.58-2-5.38-0.371-0.998-0.742-2-1.12-3.02-0.875-2.6-0.875-2.6-0.875-4.6h-23c-0.99 2.97-1.98 5.94-3 9-0.649 1.67-1.31 3.34-2 5h-7c-1.24-3.71-0.612-4.7 0.773-8.29 0.408-1.08 0.817-2.15 1.24-3.26 0.45-1.16 0.9-2.32 1.36-3.52 0.932-2.44 1.86-4.87 2.79-7.31 0.237-0.625 0.475-1.25 0.719-1.89 1.65-4.38 3.16-8.79 4.62-13.2 0.391-1.19 0.781-2.37 1.18-3.59 0.744-2.28 1.47-4.56 2.19-6.85 0.339-1.03 0.678-2.06 1.03-3.12 0.287-0.907 0.574-1.81 0.87-2.75 1.24-2.19 1.24-2.19 3.55-3.62 3.41-0.72 4.74-0.434 7.68 1.43zm-5 11c-5.13 10.6-5.13 10.6-7 22h15c-1.78-7.66-3.86-14.8-7-22h-1z" fill="#000100"/>
<path transform="translate(744,951)" d="m0 0h38v6h-29v19h27v6c-13.4 0.495-13.4 0.495-27 1v17c9.57 0.33 19.1 0.66 29 1v7h-37c-1.12-9-1.12-9-1.11-13.4 7.55e-5 -0.98 1.51e-4 -1.96 2.29e-4 -2.97 0.00516-1.03 0.0103-2.06 0.0156-3.12 0.00141-1.08 0.00283-2.15 0.00429-3.26 0.00556-3.41 0.0181-6.83 0.0309-10.2 0.00502-2.32 0.00958-4.65 0.0137-6.97 0.0101-5.68 0.0297-11.4 0.0488-17z" fill="#000100"/>
<path transform="translate(1244,951)" d="m0 0h8c7.75 18.2 13.8 37.2 20 56-5.16 1.39-5.16 1.39-8 0-1.38-2.69-1.38-2.69-2.56-6-1.11-3.24-1.11-3.24-2.44-6-2.88-0.961-4.68-1.12-7.67-1.1-0.893 0.00322-1.79 0.00645-2.71 0.00977-1.39 0.0126-1.39 0.0126-2.81 0.0254-0.94 0.00451-1.88 0.00902-2.85 0.0137-2.32 0.0118-4.64 0.0282-6.96 0.0488-0.133 0.736-0.266 1.47-0.402 2.23-0.815 3.78-2.19 7.17-3.6 10.8h-8c2.28-9.26 5.39-18.2 8.56-27.2 0.878-2.49 1.75-4.99 2.61-7.48 0.565-1.61 1.13-3.22 1.7-4.83 0.254-0.734 0.509-1.47 0.771-2.22 1.77-4.97 3.92-9.58 6.36-14.3zm3 12c-1.18 3.08-2.34 6.16-3.5 9.25-0.334 0.873-0.668 1.75-1.01 2.64-0.316 0.844-0.632 1.69-0.957 2.56-0.293 0.775-0.587 1.55-0.889 2.35-0.83 2.46-0.83 2.46-0.643 6.2h16c-2.87-11.2-2.87-11.2-7-22-0.66-0.33-1.32-0.66-2-1z" fill="#000100"/>
<path transform="translate(901 950)" d="m0 0c0.838-0.0206 1.68-0.0412 2.54-0.0625 5.11-0.0321 8.71 0.386 13.1 3.31 2.58 3.05 4.54 7 5 11-0.33 0.33-0.66 0.66-1 1-5.53-0.326-8.53-1.86-13-5-5.04-2.35-9.68-2.38-15-1-2.71 0.962-2.71 0.962-5 3-0.508 2.74-0.68 4.85-0.629 7.59-0.00241 0.741-0.00482 1.48-0.00731 2.25 9.79e-4 1.57 0.0144 3.13 0.0393 4.7 0.0343 2.39 0.0207 4.78 0.00122 7.18 0.0069 1.52 0.0166 3.05 0.0293 4.57-0.00496 0.714-0.00992 1.43-0.015 2.16 0.0814 3.45 0.338 5.25 2.5 8 2.22 1.67 3.33 2.25 6.08 2.56 1.03 0.124 2.06 0.247 3.12 0.375 6.35-0.614 11.5-3.81 16.8-7.25 2.12-1.12 2.12-1.12 4.44-0.812 0.557 0.227 1.11 0.454 1.69 0.688-0.389 5.44-2.17 8.17-6 12-4.79 2.71-9.96 2.37-15.3 2.38-0.912 0.0245-1.82 0.049-2.76 0.0742-5.76 0.0248-11.5-0.361-15.9-4.45-2.83-5.23-3.45-9.47-3.4-15.3-0.00431-1.16-0.00431-1.16-0.0087-2.35-0.00203-1.63 0.00342-3.26 0.016-4.88 0.0161-2.48 1.03e-4 -4.96-0.019-7.44 0.00198-1.59 0.00583-3.18 0.0117-4.77-0.00607-0.735-0.0121-1.47-0.0184-2.23 0.0641-4.73 0.892-7.98 3.42-12 6.38-5.02 11.6-5.2 19.4-5.25z" fill="#000100"/>
<path transform="translate(316,951)" d="m0 0h36v6h-28c0.33 5.94 0.66 11.9 1 18 7.92 0.33 15.8 0.66 24 1v6c-1.71 1.71-4 1.23-6.35 1.32-1.08 0.0419-2.16 0.0838-3.27 0.127-1.14 0.0393-2.27 0.0786-3.44 0.119-1.71 0.0648-1.71 0.0648-3.46 0.131-2.83 0.106-5.65 0.207-8.48 0.307v23c-3 1-3 1-8 0v-56z" fill="#000100"/>
<path transform="translate(1396,951)" d="m0 0c6.38-0.491 6.38-0.491 8.98 1.58 2.44 2.93 4.27 6.08 6.08 9.42 2.62 4.8 2.62 4.8 5.68 9.31 1.25 1.69 1.25 1.69 1.25 3.69 4.44-3.77 6.88-8.68 9.69-13.7 0.982-1.73 1.96-3.47 2.95-5.2 0.645-1.15 0.645-1.15 1.3-2.32 1.06-1.79 1.06-1.79 2.06-2.79 2.67-0.141 5.32-0.0425 8 0-1.29 4.26-2.92 7.87-5.19 11.7-0.616 1.05-1.23 2.09-1.87 3.17-0.642 1.08-1.28 2.15-1.95 3.26-1.27 2.15-2.54 4.3-3.81 6.45-0.563 0.946-1.13 1.89-1.71 2.87-0.489 0.845-0.977 1.69-1.48 2.56-0.387 0.665-0.774 1.33-1.17 2.01-1.03 2.47-1.15 4.52-1.24 7.19-0.0387 0.98-0.0773 1.96-0.117 2.97-0.0464 1.52-0.0464 1.52-0.0938 3.08-0.0387 1.03-0.0773 2.06-0.117 3.12-0.0941 2.54-0.18 5.08-0.258 7.62h-8c-0.00411-0.614-0.00822-1.23-0.0125-1.86-0.0574-4.89-0.196-9.76-0.472-14.6-0.0512-0.924-0.102-1.85-0.155-2.8-0.666-4.98-2.59-8.59-5.36-12.7-0.825-1.4-1.64-2.81-2.45-4.22-4.33-7.78-4.33-7.78-9.36-15.1-1.2-1.68-1.2-1.68-1.2-4.68z" fill="#000100"/>
<path transform="translate(391,950)" d="m0 0h40c0.495 2.97 0.495 2.97 1 6-1.99 1.99-5.35 1.71-8 2h-9v49c-5 1-5 1-7 0v-49h-11c-2.01-0.272-4.02-0.572-6-1v-7z" fill="#000100"/>
</svg>
